<svg id="Group_1605" data-name="Group 1605" xmlns="http://www.w3.org/2000/svg" xmlns:xlink="http://www.w3.org/1999/xlink" width="69.443" height="46.737" viewBox="0 0 69.443 46.737">
  <defs>
    <clipPath id="clip-path">
      <rect id="Rectangle_824" data-name="Rectangle 824" width="69.443" height="46.737" fill="#fff"/>
    </clipPath>
  </defs>
  <g id="Group_1605-2" data-name="Group 1605" clip-path="url(#clip-path)">
    <path id="Path_2408" data-name="Path 2408" d="M9.216,16.76H8.384V9.389h.832Zm6.806-2v.021c0,1.264-1.053,2.085-2.517,2.085a4.312,4.312,0,0,1-3.011-1.179l.516-.611a3.51,3.51,0,0,0,2.527,1.042c.99,0,1.643-.526,1.643-1.253v-.021c0-.684-.369-1.074-1.916-1.4-1.7-.369-2.475-.916-2.475-2.127V11.3A2.177,2.177,0,0,1,13.21,9.284a3.846,3.846,0,0,1,2.59.906l-.484.642a3.239,3.239,0,0,0-2.127-.8c-.958,0-1.569.526-1.569,1.19v.021c0,.7.379,1.085,2,1.432,1.643.358,2.4.958,2.4,2.085m7.409-5.5a3.735,3.735,0,0,0-3.77,3.812V13.1a3.759,3.759,0,1,0,7.518-.021v-.021A3.7,3.7,0,0,0,23.43,9.263M26.315,13.1a2.9,2.9,0,0,1-2.885,3.022,2.93,2.93,0,0,1-2.906-3.043v-.021a2.9,2.9,0,0,1,2.885-3.022,2.93,2.93,0,0,1,2.906,3.043ZM17.393,9.389h.832V16.76h-.832ZM3.348,16.813.178,9.389H1.1l.453,1.1,2.169,5.252.207.5-.08-.81L6.359,9.389h.895l-3.17,7.424ZM33.963,9.389h.811V16.76h-.663L28.89,10.13l.461,1.075V16.76H28.54V9.389h.779L34.3,15.731l-.342-.9Z" transform="translate(-0.134 -6.994)" fill="#fff"/>
    <path id="Path_2409" data-name="Path 2409" d="M175.64,10.547h.78v.781h-.78Zm1.561,0h.78v.781h-.78ZM161.13,1.623h-.78V.842h.78Zm19.086,5.458a3.071,3.071,0,0,0,1.029.468,4.928,4.928,0,0,0,1.239.151h.206l.262-.551v.775a1.027,1.027,0,0,1-.351.878,1.613,1.613,0,0,1-.985.263A2.812,2.812,0,0,1,180.967,9a3.775,3.775,0,0,1-.658-.234l-.244.751a7.069,7.069,0,0,0,.795.249,2.98,2.98,0,0,0,.7.083,2.207,2.207,0,0,0,1.658-.541,2.024,2.024,0,0,0,.517-1.458V2.4h-1.249a4.027,4.027,0,0,0-1.317.205,3.174,3.174,0,0,0-1.019.561,2.5,2.5,0,0,0-.659.848,2.457,2.457,0,0,0-.234,1.068,2.519,2.519,0,0,0,.258,1.185,2.28,2.28,0,0,0,.7.81m0-2.765a1.91,1.91,0,0,1,.478-.6,2.212,2.212,0,0,1,.678-.385,2.321,2.321,0,0,1,.765-.135H183.4l-.445.222v3.5h-.79a2.707,2.707,0,0,1-.824-.122,2.074,2.074,0,0,1-.678-.356,1.649,1.649,0,0,1-.458-.575,1.762,1.762,0,0,1-.166-.78,1.659,1.659,0,0,1,.181-.771M162.691,1.623h-.781V.842h.781Zm23.017,8.223a2.4,2.4,0,0,1-.634-.088l.205-.751a1.5,1.5,0,0,0,.215.049,1.542,1.542,0,0,0,.185.01A.905.905,0,0,0,186.045,9a.491.491,0,0,0,.224-.205,1.042,1.042,0,0,0,.117-.371,3.881,3.881,0,0,0,.034-.561V2.4h.78V7.866a4.222,4.222,0,0,1-.073.824,1.687,1.687,0,0,1-.249.624,1.143,1.143,0,0,1-.463.395,1.641,1.641,0,0,1-.707.136m-1.976-8.223h-1.709V.985a1.022,1.022,0,0,1,.239-.751A.946.946,0,0,1,182.95,0h.55V.544h-.536a.315.315,0,0,0-.241.068.361.361,0,0,0-.063.229v.181h1.072Zm-23.17,8.115h1.622V9.154c.016.027.031.055.048.081a1.142,1.142,0,0,0,.464.395,1.638,1.638,0,0,0,.707.137h14.579V2.4h-.78V8.986H163.433a.9.9,0,0,1-.366-.063.491.491,0,0,1-.224-.2,1.044,1.044,0,0,1-.117-.371,3.893,3.893,0,0,1-.034-.561V2.4h-2.109a3.593,3.593,0,0,0-3.627,3.667v.02a3.559,3.559,0,0,0,3.606,3.647M157.787,6.05a2.786,2.786,0,0,1,2.776-2.907h1.827l-.478.239v4.4a4.224,4.224,0,0,0,.073.824,1.887,1.887,0,0,0,.121.388h-1.523a2.819,2.819,0,0,1-2.8-2.928Z" transform="translate(-118.505 0)" fill="#fff"/>
    <path id="Path_2410" data-name="Path 2410" d="M3.605,180.929H3.03l-1.113-1.466-.548.562v.9H.891V177.8h.478v1.679L2.958,177.8h.573l-1.29,1.334Z" transform="translate(-0.673 -134.246)" fill="#fff"/>
    <rect id="Rectangle_731" data-name="Rectangle 731" width="0.479" height="3.124" transform="translate(3.575 43.559)" fill="#fff"/>
    <path id="Path_2411" data-name="Path 2411" d="M23.152,177.8v3.124h-.41l-1.833-2.365v2.365h-.47V177.8H20.9l1.783,2.3v-2.3Z" transform="translate(-15.432 -134.246)" fill="#fff"/>
    <path id="Path_2412" data-name="Path 2412" d="M37.624,179.05v1.285a2,2,0,0,1-1.3.477,1.544,1.544,0,0,1-1.622-1.608v-.009a1.6,1.6,0,0,1,1.612-1.617,1.693,1.693,0,0,1,1.173.4l-.3.361a1.283,1.283,0,0,0-.892-.327,1.136,1.136,0,0,0-1.083,1.184,1.112,1.112,0,0,0,1.133,1.19,1.351,1.351,0,0,0,.8-.252l.017-.014v-.664h-.821v-.4Z" transform="translate(-26.203 -134.074)" fill="#fff"/>
    <path id="Path_2413" data-name="Path 2413" d="M51.3,177.806H50.149v3.123H51.3a1.565,1.565,0,1,0,0-3.123m0,2.7h-.675v-2.267H51.3a1.134,1.134,0,1,1,0,2.267" transform="translate(-37.863 -134.247)" fill="#fff"/>
    <path id="Path_2414" data-name="Path 2414" d="M65.789,177.576a1.592,1.592,0,0,0-1.64,1.617v.01a1.635,1.635,0,1,0,1.64-1.627m1.125,1.627a1.127,1.127,0,0,1-1.125,1.176,1.148,1.148,0,0,1-1.135-1.186,1.129,1.129,0,0,1,1.125-1.184,1.149,1.149,0,0,1,1.134,1.184Z" transform="translate(-48.434 -134.073)" fill="#fff"/>
    <path id="Path_2415" data-name="Path 2415" d="M83.775,177.8v3.124H83.3v-2.4l-1.066,1.591-1.055-1.581v2.39h-.47V177.8h.536l1,1.553,1-1.553Z" transform="translate(-60.934 -134.246)" fill="#fff"/>
    <path id="Path_2416" data-name="Path 2416" d="M104.525,177.576a1.594,1.594,0,0,0-1.641,1.617v.01a1.636,1.636,0,1,0,1.641-1.627m1.125,1.627a1.127,1.127,0,0,1-1.125,1.176,1.147,1.147,0,0,1-1.133-1.186,1.128,1.128,0,0,1,1.123-1.184,1.149,1.149,0,0,1,1.134,1.184Z" transform="translate(-77.679 -134.073)" fill="#fff"/>
    <path id="Path_2417" data-name="Path 2417" d="M119.928,178.233v.961h1.619v.428h-1.619v1.307h-.478V177.8h2.3v.428Z" transform="translate(-90.187 -134.246)" fill="#fff"/>
    <path id="Path_2418" data-name="Path 2418" d="M140.168,179.916c0,.556-.433.915-1.1.915a1.935,1.935,0,0,1-1.279-.476l.284-.338a1.5,1.5,0,0,0,1.009.4c.371,0,.611-.175.611-.456s-.177-.4-.757-.532c-.672-.161-1.035-.355-1.035-.925a.938.938,0,0,1,1.052-.889,1.724,1.724,0,0,1,1.107.369l-.255.358a1.455,1.455,0,0,0-.861-.314c-.332,0-.565.175-.565.433,0,.279.171.4.794.546.719.175,1,.427,1,.908" transform="translate(-104.031 -134.103)" fill="#fff"/>
    <path id="Path_2419" data-name="Path 2419" d="M151.08,177.71h-.467l-1.375,3.147h.486l.329-.774h1.574l.326.774h.5Zm-.857,1.958.615-1.436.619,1.436Z" transform="translate(-112.678 -134.175)" fill="#fff"/>
    <path id="Path_2420" data-name="Path 2420" d="M166.829,177.8v1.777a1.245,1.245,0,0,1-1.336,1.4,1.226,1.226,0,0,1-1.324-1.37v-1.8h.478v1.781c0,.61.312.961.854.961s.85-.341.85-.937v-1.8Z" transform="translate(-123.951 -134.246)" fill="#fff"/>
    <path id="Path_2421" data-name="Path 2421" d="M179.9,177.806h-1.155v3.123H179.9a1.565,1.565,0,1,0,0-3.123m0,2.7h-.676v-2.267h.676a1.134,1.134,0,1,1,0,2.267" transform="translate(-134.955 -134.247)" fill="#fff"/>
    <rect id="Rectangle_732" data-name="Rectangle 732" width="0.478" height="3.124" transform="translate(47.406 43.559)" fill="#fff"/>
    <path id="Path_2422" data-name="Path 2422" d="M206.986,177.71h-.467l-1.375,3.147h.485l.329-.774h1.575l.325.774h.5Zm-.857,1.958.615-1.436.619,1.436Z" transform="translate(-154.888 -134.175)" fill="#fff"/>
    <path id="Path_2423" data-name="Path 2423" d="M222.635,179.733l.059-.017a.92.92,0,0,0,.734-.931.932.932,0,0,0-.254-.671,1.249,1.249,0,0,0-.9-.308h-1.387v3.123h.478V179.81h.761l.022.019.776,1.1h.561Zm-1.266-.337v-1.162h.864c.451,0,.708.209.708.574s-.277.588-.7.588Z" transform="translate(-166.777 -134.247)" fill="#fff"/>
    <path id="Path_2424" data-name="Path 2424" d="M235.637,177.71h-.467l-1.375,3.147h.484l.331-.774h1.574l.326.774h.5Zm-.858,1.958.615-1.436.621,1.436Z" transform="translate(-176.52 -134.175)" fill="#fff"/>
    <path id="Path_2425" data-name="Path 2425" d="M251.515,179.343l-.095-.032.088-.045a.72.72,0,0,0,.437-.678.682.682,0,0,0-.2-.511,1.124,1.124,0,0,0-.808-.271h-1.4v3.123h1.443c.717,0,1.145-.313,1.145-.838a.743.743,0,0,0-.609-.748m-1.51-1.123h.853c.38,0,.607.169.607.45,0,.314-.236.489-.647.489h-.813Zm.977,2.295h-.977v-.965h.938c.611,0,.7.3.7.473,0,.317-.241.492-.662.492" transform="translate(-188.404 -134.247)" fill="#fff"/>
    <rect id="Rectangle_733" data-name="Rectangle 733" width="0.478" height="3.124" transform="translate(64.503 43.559)" fill="#fff"/>
    <path id="Path_2426" data-name="Path 2426" d="M269.732,177.71h-.465l-1.375,3.147h.485l.329-.774h1.574l.326.774h.5Zm-.857,1.958.615-1.436.621,1.436Z" transform="translate(-202.264 -134.175)" fill="#fff"/>
    <path id="Path_2427" data-name="Path 2427" d="M49.672,149.122H49.21v.462h.462Zm-5.624,4.031H44.5v-4.031h-.449ZM4.8,150.1H4.347v2.6H2.561v-2.6H1.854a2.39,2.39,0,0,0-.764.115,1.757,1.757,0,0,0-.584.32,1.428,1.428,0,0,0-.373.486,1.405,1.405,0,0,0-.132.607,1.447,1.447,0,0,0,.152.685,1.371,1.371,0,0,0,.4.472,1.742,1.742,0,0,0,.59.275,2.732,2.732,0,0,0,.708.09H4.8Zm-2.685,2.6H1.668a1.507,1.507,0,0,1-.475-.073,1.168,1.168,0,0,1-.388-.211.985.985,0,0,1-.261-.337,1.034,1.034,0,0,1-.1-.452.942.942,0,0,1,.1-.441,1.115,1.115,0,0,1,.275-.342,1.232,1.232,0,0,1,.39-.219,1.368,1.368,0,0,1,.45-.076h.444Zm1.436,1.444H4.01v-.462H3.548Zm-.989-5.026H2.1v.462h.462Zm27.441,0h-.462v.462H30ZM4.335,154.148H4.8v-.462H4.335Zm26.452-5.026h-.462v.462h.462Zm18.1,0h-.462v.462h.462Zm-47.113,0H1.311v.462h.462Zm30.511,5.026h.462v-.462h-.462Zm2.885-4.044h-.449v2.6h-1.7v-2.6h-.449v2.6H30.787v-2.6h-.708a2.389,2.389,0,0,0-.764.115,1.755,1.755,0,0,0-.584.32,1.428,1.428,0,0,0-.373.486,1.405,1.405,0,0,0-.132.607,1.444,1.444,0,0,0,.152.685,1.371,1.371,0,0,0,.4.472,1.74,1.74,0,0,0,.59.275,2.731,2.731,0,0,0,.708.09h5.089Zm-4.831,2.6h-.444a1.506,1.506,0,0,1-.475-.073,1.166,1.166,0,0,1-.388-.211.985.985,0,0,1-.261-.337,1.034,1.034,0,0,1-.1-.452.939.939,0,0,1,.1-.441,1.115,1.115,0,0,1,.275-.342,1.236,1.236,0,0,1,.39-.219,1.367,1.367,0,0,1,.449-.076h.444Zm2.732,1.444h.462v-.462H33.07ZM7.695,150.5a1.205,1.205,0,0,0-.4-.295,1.338,1.338,0,0,0-.542-.1H6.42v.449h.393a.707.707,0,0,1,.309.07.727.727,0,0,1,.242.183.68.68,0,0,1,.132.258,1.359,1.359,0,0,1,.037.337v1.3H5.426v.449H7.981v-1.769a1.687,1.687,0,0,0-.07-.494,1.026,1.026,0,0,0-.216-.393m34.6,2.207H40.38l.786-1.881a4,4,0,0,0-.382-.295,3.316,3.316,0,0,0-.416-.242,2.433,2.433,0,0,0-.432-.163,1.653,1.653,0,0,0-.432-.059,1.675,1.675,0,0,0-.438.059,2.673,2.673,0,0,0-.435.16,2.733,2.733,0,0,0-.416.241,3.974,3.974,0,0,0-.374.3l.792,1.881H36.96v-2.6H36.51v3.145a2.262,2.262,0,0,1-.02.323.6.6,0,0,1-.067.213.282.282,0,0,1-.129.118.52.52,0,0,1-.21.037.893.893,0,0,1-.107-.006.834.834,0,0,1-.123-.028l-.118.433a1.376,1.376,0,0,0,.365.05.943.943,0,0,0,.407-.079.657.657,0,0,0,.267-.227.973.973,0,0,0,.143-.36,2.424,2.424,0,0,0,.042-.475v-.1h5.78v-4.031H42.29Zm-3.185,0-.7-1.724a1.79,1.79,0,0,1,.531-.32,1.625,1.625,0,0,1,.57-.1,1.588,1.588,0,0,1,.6.121,1.794,1.794,0,0,1,.505.3l-.7,1.724Zm-4.393,1.444h.462v-.462h-.462Zm33.5-.995h.449v-4.031h-.449Zm-1.758-.449H64.912a1.582,1.582,0,0,0,.141-.663,1.65,1.65,0,0,0-.127-.649,1.581,1.581,0,0,0-.865-.865,1.657,1.657,0,0,0-.649-.126,1.539,1.539,0,0,0-.629.129,1.621,1.621,0,0,0-.509.351,1.651,1.651,0,0,0-.463,1.16,1.607,1.607,0,0,0,.037.345,1.95,1.95,0,0,0,.1.317H60.554a1.582,1.582,0,0,0,.14-.663,1.655,1.655,0,0,0-.126-.649,1.58,1.58,0,0,0-.865-.865,1.656,1.656,0,0,0-.649-.126,1.54,1.54,0,0,0-.629.129,1.608,1.608,0,0,0-.848.871,1.651,1.651,0,0,0-.124.64,1.591,1.591,0,0,0,.037.345,1.926,1.926,0,0,0,.1.317H56.161v-3.582h-.45V152.7H54.28v-.688a1.764,1.764,0,0,0-.067-.491,1,1,0,0,0-.213-.4,1.128,1.128,0,0,0-.393-.292,1.4,1.4,0,0,0-.556-.1H51.062l.846-1.619h-.489l-.863,1.613a.984.984,0,0,0,.07.253.8.8,0,0,0,.132.2H53.05a.953.953,0,0,1,.368.064.65.65,0,0,1,.25.177.6.6,0,0,1,.129.258,1.464,1.464,0,0,1,.034.326v.688H49.674v-2.6h-.708a2.392,2.392,0,0,0-.764.115,1.753,1.753,0,0,0-.584.32,1.425,1.425,0,0,0-.373.486,1.405,1.405,0,0,0-.132.607,1.444,1.444,0,0,0,.152.685,1.371,1.371,0,0,0,.4.472,1.741,1.741,0,0,0,.589.275,2.734,2.734,0,0,0,.708.09H57.88a1.628,1.628,0,0,0,.52.374,1.551,1.551,0,0,0,.654.138,1.677,1.677,0,0,0,.671-.135,1.582,1.582,0,0,0,.537-.377h1.977a1.629,1.629,0,0,0,.52.374,1.55,1.55,0,0,0,.654.138,1.678,1.678,0,0,0,.671-.135,1.584,1.584,0,0,0,.536-.377h2.286v-4.031h-.449Zm-17.232,0h-.444a1.509,1.509,0,0,1-.475-.073,1.167,1.167,0,0,1-.387-.211.979.979,0,0,1-.261-.337,1.034,1.034,0,0,1-.1-.452.939.939,0,0,1,.1-.441,1.111,1.111,0,0,1,.275-.342,1.235,1.235,0,0,1,.39-.219,1.368,1.368,0,0,1,.45-.076h.444Zm10.927-.2a1.153,1.153,0,0,1-.253.374,1.137,1.137,0,0,1-.377.244,1.243,1.243,0,0,1-.469.087,1.123,1.123,0,0,1-.458-.093,1.14,1.14,0,0,1-.365-.253,1.169,1.169,0,0,1-.242-.374,1.2,1.2,0,0,1-.087-.455,1.22,1.22,0,0,1,.087-.458,1.185,1.185,0,0,1,.239-.376,1.138,1.138,0,0,1,.362-.256,1.109,1.109,0,0,1,.463-.1,1.226,1.226,0,0,1,.475.09,1.176,1.176,0,0,1,.377.247,1.118,1.118,0,0,1,.25.374,1.227,1.227,0,0,1,.09.475,1.178,1.178,0,0,1-.093.469m4.358,0a1.152,1.152,0,0,1-.253.374,1.136,1.136,0,0,1-.376.244,1.244,1.244,0,0,1-.469.087,1.124,1.124,0,0,1-.458-.093,1.139,1.139,0,0,1-.365-.253,1.17,1.17,0,0,1-.242-.374,1.2,1.2,0,0,1-.087-.455,1.22,1.22,0,0,1,.087-.458,1.19,1.19,0,0,1,.239-.376,1.14,1.14,0,0,1,.362-.256,1.109,1.109,0,0,1,.463-.1,1.228,1.228,0,0,1,.475.09,1.174,1.174,0,0,1,.376.247,1.118,1.118,0,0,1,.25.374,1.222,1.222,0,0,1,.09.475,1.178,1.178,0,0,1-.093.469m-41.2.2h-.736a1.4,1.4,0,0,1-.618-.112.83.83,0,0,1-.354-.337,1.943,1.943,0,0,0,.039-.421v-1.449H21.2v1.522a.9.9,0,0,1-.208.621.8.8,0,0,1-.629.233A1,1,0,0,1,20,152.7a.873.873,0,0,1-.281-.169.78.78,0,0,1-.185-.25.769.769,0,0,1-.073-.306v-1.589h-.45v1.556a.886.886,0,0,1-.062.351.645.645,0,0,1-.168.236.671.671,0,0,1-.242.135.951.951,0,0,1-.286.042h-.87v-2.32h-.45v2.32H14.576l.786-1.881a3.972,3.972,0,0,0-.382-.295,3.328,3.328,0,0,0-.415-.242,2.435,2.435,0,0,0-.433-.163,1.653,1.653,0,0,0-.432-.059,1.674,1.674,0,0,0-.438.059,2.676,2.676,0,0,0-.435.16,2.733,2.733,0,0,0-.416.241,3.974,3.974,0,0,0-.374.3l.792,1.881H11.273v-2.6h-.719a2.324,2.324,0,0,0-.758.118,1.83,1.83,0,0,0-.587.323,1.438,1.438,0,0,0-.379.488,1.415,1.415,0,0,0-.135.615,1.453,1.453,0,0,0,.149.682,1.314,1.314,0,0,0,.4.466,1.771,1.771,0,0,0,.593.269,2.84,2.84,0,0,0,.713.087h.269v.129a.592.592,0,0,1-.2.506.93.93,0,0,1-.567.152,1.623,1.623,0,0,1-.374-.039,2.174,2.174,0,0,1-.379-.135l-.14.433a4.018,4.018,0,0,0,.458.143,1.718,1.718,0,0,0,.4.048,1.271,1.271,0,0,0,.955-.312,1.166,1.166,0,0,0,.3-.84v-.084h6.981a1.187,1.187,0,0,0,.581-.14,1.159,1.159,0,0,0,.413-.376,1.14,1.14,0,0,0,.444.421,1.389,1.389,0,0,0,.668.151,1.536,1.536,0,0,0,.688-.14.963.963,0,0,0,.435-.432,1.224,1.224,0,0,0,.137.188.8.8,0,0,0,.211.166,1.224,1.224,0,0,0,.312.118,1.729,1.729,0,0,0,.323.04v.005h1.3v-4.031h-.449Zm-12.492,0h-.455a1.556,1.556,0,0,1-.475-.07,1.193,1.193,0,0,1-.39-.2.947.947,0,0,1-.264-.331,1.012,1.012,0,0,1-.1-.449.957.957,0,0,1,.1-.444,1.1,1.1,0,0,1,.275-.345,1.274,1.274,0,0,1,.39-.222,1.336,1.336,0,0,1,.455-.079h.455Zm2.477,0-.7-1.724a1.79,1.79,0,0,1,.531-.32,1.626,1.626,0,0,1,.57-.1,1.589,1.589,0,0,1,.6.121,1.8,1.8,0,0,1,.506.3l-.7,1.724Zm11.772.449h.449v-4.031h-.449Z" transform="translate(0 -112.59)" fill="#fff"/>
    <path id="Path_2428" data-name="Path 2428" d="M59.985,56.062a9.228,9.228,0,0,0-9.509,9.228v.051a9.488,9.488,0,0,0,18.968-.051V65.24a9.143,9.143,0,0,0-9.458-9.178m5.354,9.28A5.337,5.337,0,0,1,59.985,70.9a5.422,5.422,0,0,1-5.4-5.609V65.24a5.337,5.337,0,0,1,5.354-5.558,5.422,5.422,0,0,1,5.4,5.608ZM6.4,70.823h6.8v3.391H0V71.1l5.94-4.869c2.218-1.835,3.085-2.8,3.085-4.283a2.189,2.189,0,0,0-2.4-2.32c-1.377,0-2.32.765-3.646,2.4L.23,59.809c1.759-2.4,3.467-3.7,6.654-3.7,3.7,0,6.144,2.167,6.144,5.507v.051c0,2.983-1.53,4.461-4.691,6.909l-3.9,3.011-.757.585ZM49.463,68.63v.051c0,3.366-2.447,5.838-6.425,5.838a8.659,8.659,0,0,1-6.96-3.085l2.7-2.575A5.444,5.444,0,0,0,43.09,71a2.238,2.238,0,0,0,2.524-2.167v-.051c0-1.453-1.3-2.269-3.493-2.269H40.49l-.612-2.5L45.6,58.257l-2.294,1.476H37.125V56.368H49.183v2.957l-4.512,4.308c2.422.408,4.793,1.683,4.793,5" transform="translate(0 -42.328)" fill="#fff"/>
    <path id="Path_2429" data-name="Path 2429" d="M93.206,78.848a3.208,3.208,0,0,0-.619-.268,3.684,3.684,0,0,0-1.7-.125,4.119,4.119,0,0,0-.737.19l-.073.026a3.95,3.95,0,0,0-.39.174q-.167.085-.333.184a8.116,8.116,0,0,0-.742.51,15.942,15.942,0,0,1-.077-3.967.006.006,0,0,1,.009,0c.588.371.423,1.407.3,1.7,0,.006.006.01.011.005a1.832,1.832,0,0,0,.224-2.068c0-.005,0-.011.009-.007a1.689,1.689,0,0,1,.265.271,1.612,1.612,0,0,1,.333.88,2.593,2.593,0,0,1,0,.4c0,.031,0,.061-.007.088,0,0,0,.005.007,0s0,0,0,0a1.7,1.7,0,0,0,0-1.549,1.936,1.936,0,0,0-.333-.456c-.041-.043-.085-.085-.133-.127a.006.006,0,0,1,.005-.01,1.325,1.325,0,0,1,.127.038,1.247,1.247,0,0,1,.333.175,1.389,1.389,0,0,1,.464.626,1.586,1.586,0,0,1,.108.573c0,.007.01.007.011,0a1.428,1.428,0,0,0-.119-1.171,1.379,1.379,0,0,0-.464-.449,1.5,1.5,0,0,0-.333-.149,1.019,1.019,0,0,0-.159-.035c-.007,0-.006-.011,0-.011.055-.005.107-.008.158-.009a1.637,1.637,0,0,1,.333.027,1.211,1.211,0,0,1,.464.184.975.975,0,0,1,.312.334c0,.005.012,0,.011,0a.938.938,0,0,0-.323-.628,1.188,1.188,0,0,0-.464-.244,1.312,1.312,0,0,0-.333-.048,1.047,1.047,0,0,0-.415.074.006.006,0,0,1-.007-.009.784.784,0,0,1,.422-.3.954.954,0,0,1,.333-.039.746.746,0,0,1,.273.064.006.006,0,0,0,.007-.009,1.044,1.044,0,0,0-.279-.227.891.891,0,0,0-.333-.109.833.833,0,0,0-.8.4.006.006,0,0,1-.01,0,2.463,2.463,0,0,1-.111-.226,2.667,2.667,0,0,1-.182-.606.005.005,0,0,0-.01,0,2.671,2.671,0,0,1-.183.609,2.379,2.379,0,0,1-.11.224.006.006,0,0,1-.01,0,.857.857,0,0,0-1.413-.062.006.006,0,0,0,.006.009.873.873,0,0,1,1.028.275.006.006,0,0,1-.007.009,1.222,1.222,0,0,0-1.319.327.934.934,0,0,0-.215.519c0,.006.008.01.011,0a.934.934,0,0,1,.2-.251,1.346,1.346,0,0,1,1.062-.285c.007,0,.008.011,0,.011a1.406,1.406,0,0,0-1.063.852,1.532,1.532,0,0,0-.012.952c0,.006.011.006.011,0s0-.018,0-.026A1.411,1.411,0,0,1,87.261,74.7a.006.006,0,0,1,.005.01,1.728,1.728,0,0,0-.47,2.132.006.006,0,0,0,.011,0A1.752,1.752,0,0,1,87.4,75.2s.012,0,.009.007a1.831,1.831,0,0,0,.224,2.068s.013,0,.011-.005c-.123-.3-.288-1.332.3-1.7a.006.006,0,0,1,.009,0,15.954,15.954,0,0,1-.076,3.968,6.007,6.007,0,0,0-1.466-.869c-.061-.023-.121-.044-.18-.063a3.866,3.866,0,0,0-1.384-.2,3.573,3.573,0,0,0-1.429.362c-.056.028-.1.053-.139.074a.014.014,0,0,0,.012.025l.127-.037a3.951,3.951,0,0,1,1.429-.141,4.252,4.252,0,0,1,1.384.374,7.309,7.309,0,0,1,1.648,1.074,17.981,17.981,0,0,1-1.648,1.412l-.052.029a.385.385,0,0,0-.687.136.373.373,0,0,0,.075.333.552.552,0,0,0,.664.1,9.208,9.208,0,0,0,1.825-1.522l.188-.17c.063.056.125.113.187.169.335.307.641.606.922.861.115.105.226.2.333.289a2.908,2.908,0,0,0,.464.322.6.6,0,0,0,.737-.016c.012-.01.023-.019.034-.031a.432.432,0,0,0,.075-.333.376.376,0,0,0-.109-.189.385.385,0,0,0-.578.053,1.394,1.394,0,0,1-.159-.1,5.423,5.423,0,0,1-.464-.375c-.1-.092-.216-.192-.333-.3-.228-.207-.478-.437-.744-.67.236-.2.484-.388.744-.564.109-.073.22-.145.333-.212q.226-.135.464-.249a4.7,4.7,0,0,1,.737-.282,3.884,3.884,0,0,1,1.7-.106,4.232,4.232,0,0,1,.607.143.014.014,0,0,0,.012-.025" transform="translate(-62.87 -55.054)" fill="#fff"/>
    <rect id="Rectangle_734" data-name="Rectangle 734" width="1.581" height="1.581" transform="translate(24.253 33.899) rotate(-45)" fill="#fff"/>
    <rect id="Rectangle_735" data-name="Rectangle 735" width="1.31" height="1.31" transform="translate(15.974 27.624) rotate(-72.002)" fill="#fff"/>
    <rect id="Rectangle_736" data-name="Rectangle 736" width="1.085" height="1.085" transform="translate(19.833 16.518) rotate(-80.995)" fill="#fff"/>
    <rect id="Rectangle_737" data-name="Rectangle 737" width="1.085" height="1.085" transform="translate(32.97 22.835) rotate(-45)" fill="#fff"/>
    <rect id="Rectangle_738" data-name="Rectangle 738" width="1.085" height="1.085" transform="translate(32.598 20.487) rotate(-63.001)" fill="#fff"/>
    <rect id="Rectangle_739" data-name="Rectangle 739" width="1.085" height="1.085" transform="translate(19.833 29.153) rotate(-9.005)" fill="#fff"/>
    <rect id="Rectangle_740" data-name="Rectangle 740" width="1.085" height="1.085" transform="translate(29.668 15.616) rotate(-9.005)" fill="#fff"/>
    <rect id="Rectangle_741" data-name="Rectangle 741" width="1.085" height="1.085" transform="translate(22.057 30.555) rotate(-26.999)" fill="#fff"/>
    <rect id="Rectangle_742" data-name="Rectangle 742" width="1.085" height="1.085" transform="translate(24.604 14.469) rotate(-45)" fill="#fff"/>
    <rect id="Rectangle_743" data-name="Rectangle 743" width="0.898" height="0.898" transform="translate(23.606 15.749) rotate(-53.999)" fill="#fff"/>
    <rect id="Rectangle_744" data-name="Rectangle 744" width="0.898" height="0.898" transform="translate(25.882 30.12) rotate(-53.999)" fill="#fff"/>
    <rect id="Rectangle_745" data-name="Rectangle 745" width="0.898" height="0.898" transform="matrix(0.951, -0.309, 0.309, 0.951, 18.324, 19.244)" fill="#fff"/>
    <rect id="Rectangle_746" data-name="Rectangle 746" width="0.898" height="0.898" transform="matrix(0.951, -0.309, 0.309, 0.951, 31.287, 25.849)" fill="#fff"/>
    <rect id="Rectangle_747" data-name="Rectangle 747" width="0.898" height="0.898" transform="translate(17.559 24.073) rotate(-53.999)" fill="#fff"/>
    <rect id="Rectangle_748" data-name="Rectangle 748" width="1.582" height="1.582" transform="translate(34.83 25.909) rotate(-27.002)" fill="#fff"/>
    <rect id="Rectangle_749" data-name="Rectangle 749" width="1.581" height="1.581" transform="translate(17.963 31.129) rotate(-9.001)" fill="#fff"/>
    <rect id="Rectangle_750" data-name="Rectangle 750" width="1.581" height="1.581" transform="translate(30.97 13.227) rotate(-9.001)" fill="#fff"/>
    <rect id="Rectangle_751" data-name="Rectangle 751" width="1.31" height="1.31" transform="translate(14.954 24.485) rotate(-54.003)" fill="#fff"/>
    <rect id="Rectangle_752" data-name="Rectangle 752" width="1.085" height="1.085" transform="translate(22.057 15.116) rotate(-63.001)" fill="#fff"/>
    <rect id="Rectangle_753" data-name="Rectangle 753" width="1.085" height="1.085" transform="translate(16.685 20.013) rotate(-26.999)" fill="#fff"/>
    <rect id="Rectangle_754" data-name="Rectangle 754" width="1.085" height="1.085" transform="translate(24.604 31.201) rotate(-45)" fill="#fff"/>
    <rect id="Rectangle_755" data-name="Rectangle 755" width="0.898" height="0.898" transform="matrix(0.309, -0.951, 0.951, 0.309, 31.287, 19.821)" fill="#fff"/>
    <rect id="Rectangle_756" data-name="Rectangle 756" width="0.898" height="0.898" transform="translate(19.778 27.53)" fill="#fff"/>
    <rect id="Rectangle_757" data-name="Rectangle 757" width="1.582" height="1.582" transform="translate(13.785 19.071) rotate(-27.002)" fill="#fff"/>
    <rect id="Rectangle_758" data-name="Rectangle 758" width="1.582" height="1.582" transform="translate(13.785 26.6) rotate(-62.998)" fill="#fff"/>
    <rect id="Rectangle_759" data-name="Rectangle 759" width="1.31" height="1.31" transform="translate(20.178 14.684) rotate(-72.002)" fill="#fff"/>
    <rect id="Rectangle_760" data-name="Rectangle 760" width="1.31" height="1.31" transform="translate(28.914 31.828) rotate(-72.002)" fill="#fff"/>
    <rect id="Rectangle_761" data-name="Rectangle 761" width="1.31" height="1.31" transform="translate(33.118 26.782) rotate(-17.998)" fill="#fff"/>
    <rect id="Rectangle_762" data-name="Rectangle 762" width="1.31" height="1.31" transform="translate(33.959 24.195) rotate(-35.997)" fill="#fff"/>
    <rect id="Rectangle_763" data-name="Rectangle 763" width="1.31" height="1.31" transform="translate(33.118 18.888) rotate(-72.002)" fill="#fff"/>
    <rect id="Rectangle_764" data-name="Rectangle 764" width="1.31" height="1.31" transform="translate(31.519 15.378)" fill="#fff"/>
    <rect id="Rectangle_765" data-name="Rectangle 765" width="1.31" height="1.31" transform="translate(20.178 30.987) rotate(-17.998)" fill="#fff"/>
    <rect id="Rectangle_766" data-name="Rectangle 766" width="1.31" height="1.31" transform="translate(25.962 32.482) rotate(-54.003)" fill="#fff"/>
    <rect id="Rectangle_767" data-name="Rectangle 767" width="1.085" height="1.085" transform="translate(16.685 25.657) rotate(-63.001)" fill="#fff"/>
    <rect id="Rectangle_768" data-name="Rectangle 768" width="0.898" height="0.898" transform="translate(19.778 17.242)" fill="#fff"/>
    <rect id="Rectangle_769" data-name="Rectangle 769" width="0.898" height="0.898" transform="translate(17.559 21.598) rotate(-36.001)" fill="#fff"/>
    <rect id="Rectangle_770" data-name="Rectangle 770" width="0.898" height="0.898" transform="matrix(0.951, -0.309, 0.309, 0.951, 28.108, 16.065)" fill="#fff"/>
    <rect id="Rectangle_771" data-name="Rectangle 771" width="0.898" height="0.898" transform="translate(25.882 15.551) rotate(-36.001)" fill="#fff"/>
    <rect id="Rectangle_772" data-name="Rectangle 772" width="0.744" height="0.744" transform="translate(30.063 26.244) rotate(-9)" fill="#fff"/>
    <rect id="Rectangle_773" data-name="Rectangle 773" width="0.744" height="0.744" transform="translate(31.171 22.835) rotate(-45)" fill="#fff"/>
    <rect id="Rectangle_774" data-name="Rectangle 774" width="1.582" height="1.582" transform="translate(34.83 19.762) rotate(-62.998)" fill="#fff"/>
    <rect id="Rectangle_775" data-name="Rectangle 775" width="1.31" height="1.31" transform="translate(31.519 28.983)" fill="#fff"/>
    <rect id="Rectangle_776" data-name="Rectangle 776" width="1.31" height="1.31" transform="matrix(0.951, -0.309, 0.309, 0.951, 15.974, 18.047)" fill="#fff"/>
    <rect id="Rectangle_777" data-name="Rectangle 777" width="1.31" height="1.31" transform="translate(28.914 13.843) rotate(-17.998)" fill="#fff"/>
    <rect id="Rectangle_778" data-name="Rectangle 778" width="1.31" height="1.31" transform="translate(22.952 13.478) rotate(-54.003)" fill="#fff"/>
    <rect id="Rectangle_779" data-name="Rectangle 779" width="1.085" height="1.085" transform="matrix(0.891, -0.454, 0.454, 0.891, 32.598, 25.183)" fill="#fff"/>
    <rect id="Rectangle_780" data-name="Rectangle 780" width="1.085" height="1.085" transform="translate(16.238 22.835) rotate(-45)" fill="#fff"/>
    <rect id="Rectangle_781" data-name="Rectangle 781" width="0.898" height="0.898" transform="translate(31.929 23.874) rotate(-36.001)" fill="#fff"/>
    <rect id="Rectangle_782" data-name="Rectangle 782" width="0.898" height="0.898" transform="matrix(0.951, -0.309, 0.309, 0.951, 21.503, 29.029)" fill="#fff"/>
    <rect id="Rectangle_783" data-name="Rectangle 783" width="0.744" height="0.744" transform="translate(24.845 29.161) rotate(-45)" fill="#fff"/>
    <rect id="Rectangle_784" data-name="Rectangle 784" width="0.744" height="0.744" transform="translate(21.228 18.027) rotate(-81)" fill="#fff"/>
    <rect id="Rectangle_785" data-name="Rectangle 785" width="0.744" height="0.744" transform="translate(18.855 24.953) rotate(-62.996)" fill="#fff"/>
    <rect id="Rectangle_786" data-name="Rectangle 786" width="1.31" height="1.31" transform="translate(17.913 15.377)" fill="#fff"/>
    <rect id="Rectangle_787" data-name="Rectangle 787" width="1.31" height="1.31" transform="translate(25.962 13.188) rotate(-35.997)" fill="#fff"/>
    <rect id="Rectangle_788" data-name="Rectangle 788" width="1.085" height="1.085" transform="translate(27.227 31.029) rotate(-63.001)" fill="#fff"/>
    <rect id="Rectangle_789" data-name="Rectangle 789" width="1.085" height="1.085" transform="translate(17.983 28.203) rotate(-80.995)" fill="#fff"/>
    <rect id="Rectangle_790" data-name="Rectangle 790" width="1.085" height="1.085" transform="translate(31.519 18.369) rotate(-80.995)" fill="#fff"/>
    <rect id="Rectangle_791" data-name="Rectangle 791" width="0.898" height="0.898" transform="translate(30.066 27.53)" fill="#fff"/>
    <rect id="Rectangle_792" data-name="Rectangle 792" width="0.898" height="0.898" transform="translate(31.929 21.797) rotate(-53.999)" fill="#fff"/>
    <rect id="Rectangle_793" data-name="Rectangle 793" width="0.898" height="0.898" transform="translate(23.606 29.921) rotate(-36.001)" fill="#fff"/>
    <rect id="Rectangle_794" data-name="Rectangle 794" width="0.744" height="0.744" transform="translate(22.916 16.982) rotate(-62.996)" fill="#fff"/>
    <rect id="Rectangle_795" data-name="Rectangle 795" width="0.744" height="0.744" transform="translate(26.826 29.014) rotate(-62.996)" fill="#fff"/>
    <rect id="Rectangle_796" data-name="Rectangle 796" width="0.744" height="0.744" transform="translate(28.664 28.262) rotate(-81)" fill="#fff"/>
    <rect id="Rectangle_797" data-name="Rectangle 797" width="0.744" height="0.744" transform="translate(18.855 20.718) rotate(-27.004)" fill="#fff"/>
    <rect id="Rectangle_798" data-name="Rectangle 798" width="0.744" height="0.744" transform="translate(30.887 24.628) rotate(-27.004)" fill="#fff"/>
    <rect id="Rectangle_799" data-name="Rectangle 799" width="0.744" height="0.744" transform="translate(19.828 26.863) rotate(-81)" fill="#fff"/>
    <rect id="Rectangle_800" data-name="Rectangle 800" width="0.744" height="0.744" transform="translate(28.664 17.408) rotate(-9)" fill="#fff"/>
    <rect id="Rectangle_801" data-name="Rectangle 801" width="0.744" height="0.744" transform="translate(22.916 28.689) rotate(-27.004)" fill="#fff"/>
    <rect id="Rectangle_802" data-name="Rectangle 802" width="1.581" height="1.581" transform="translate(17.963 14.542) rotate(-80.999)" fill="#fff"/>
    <rect id="Rectangle_803" data-name="Rectangle 803" width="1.581" height="1.581" transform="translate(30.97 32.443) rotate(-80.999)" fill="#fff"/>
    <rect id="Rectangle_804" data-name="Rectangle 804" width="1.581" height="1.581" transform="translate(24.253 11.771) rotate(-45)" fill="#fff"/>
    <rect id="Rectangle_805" data-name="Rectangle 805" width="1.31" height="1.31" transform="matrix(0.809, -0.588, 0.588, 0.809, 14.954, 21.185)" fill="#fff"/>
    <rect id="Rectangle_806" data-name="Rectangle 806" width="1.31" height="1.31" transform="translate(33.959 21.475) rotate(-54.003)" fill="#fff"/>
    <rect id="Rectangle_807" data-name="Rectangle 807" width="1.31" height="1.31" transform="translate(17.913 28.983)" fill="#fff"/>
    <rect id="Rectangle_808" data-name="Rectangle 808" width="1.31" height="1.31" transform="matrix(0.809, -0.588, 0.588, 0.809, 22.952, 32.193)" fill="#fff"/>
    <rect id="Rectangle_809" data-name="Rectangle 809" width="1.085" height="1.085" transform="translate(29.668 30.054) rotate(-80.995)" fill="#fff"/>
    <rect id="Rectangle_810" data-name="Rectangle 810" width="1.085" height="1.085" transform="translate(17.983 17.467) rotate(-9.005)" fill="#fff"/>
    <rect id="Rectangle_811" data-name="Rectangle 811" width="1.085" height="1.085" transform="translate(31.519 27.302) rotate(-9.005)" fill="#fff"/>
    <rect id="Rectangle_812" data-name="Rectangle 812" width="1.085" height="1.085" transform="translate(27.227 14.642) rotate(-26.999)" fill="#fff"/>
    <rect id="Rectangle_813" data-name="Rectangle 813" width="0.898" height="0.898" transform="matrix(0.309, -0.951, 0.951, 0.309, 21.503, 16.642)" fill="#fff"/>
    <rect id="Rectangle_814" data-name="Rectangle 814" width="0.898" height="0.898" transform="matrix(0.309, -0.951, 0.951, 0.309, 28.108, 29.605)" fill="#fff"/>
    <rect id="Rectangle_815" data-name="Rectangle 815" width="0.898" height="0.898" transform="matrix(0.309, -0.951, 0.951, 0.309, 18.324, 26.426)" fill="#fff"/>
    <rect id="Rectangle_816" data-name="Rectangle 816" width="0.898" height="0.898" transform="translate(30.066 17.242)" fill="#fff"/>
    <rect id="Rectangle_817" data-name="Rectangle 817" width="0.744" height="0.744" transform="translate(24.845 16.509) rotate(-45)" fill="#fff"/>
    <rect id="Rectangle_818" data-name="Rectangle 818" width="0.744" height="0.744" transform="translate(19.828 18.808) rotate(-9)" fill="#fff"/>
    <rect id="Rectangle_819" data-name="Rectangle 819" width="0.744" height="0.744" transform="translate(18.519 22.835) rotate(-45)" fill="#fff"/>
    <rect id="Rectangle_820" data-name="Rectangle 820" width="0.744" height="0.744" transform="translate(30.887 21.043) rotate(-62.996)" fill="#fff"/>
    <rect id="Rectangle_821" data-name="Rectangle 821" width="0.744" height="0.744" transform="translate(30.063 19.426) rotate(-81)" fill="#fff"/>
    <rect id="Rectangle_822" data-name="Rectangle 822" width="0.744" height="0.744" transform="translate(21.227 27.644) rotate(-9)" fill="#fff"/>
    <rect id="Rectangle_823" data-name="Rectangle 823" width="0.744" height="0.744" transform="translate(26.826 16.656) rotate(-27.004)" fill="#fff"/>
  </g>
</svg>
