<svg xmlns="http://www.w3.org/2000/svg" width="211.26" height="248.79" viewBox="0 0 211.26 248.79">
  <g id="gea" transform="translate(-314.63 -173.02)">
    <g id="Group_1" data-name="Group 1">
      <path id="Path_1" data-name="Path 1" d="M321.4,413.12h-.8a.232.232,0,0,0-.19.09.314.314,0,0,0-.07.21v4.24c-.18.02-.42.04-.73.06s-.69.03-1.14.03a2.575,2.575,0,0,1-.97-.18,1.9,1.9,0,0,1-.79-.6,2.852,2.852,0,0,1-.53-1.06,5.454,5.454,0,0,1-.19-1.56v-1.99a5.188,5.188,0,0,1,.22-1.65,2.768,2.768,0,0,1,.58-1.05,2.016,2.016,0,0,1,.84-.55,3.308,3.308,0,0,1,.99-.16h.85c.25,0,.49.01.7.01s.43.01.63.03.41.03.63.05h.06c.13,0,.19-.05.19-.15v-.74a.165.165,0,0,0-.07-.16.478.478,0,0,0-.18-.06c-.29-.05-.66-.1-1.11-.14s-1.02-.07-1.71-.07a4.671,4.671,0,0,0-1.42.22,3.161,3.161,0,0,0-1.28.75,3.969,3.969,0,0,0-.92,1.42,6,6,0,0,0-.36,2.24v1.99a5.971,5.971,0,0,0,.34,2.16,4.047,4.047,0,0,0,.88,1.42,3.37,3.37,0,0,0,1.23.79,4.2,4.2,0,0,0,1.39.25,16.451,16.451,0,0,0,1.73-.07c.45-.04.86-.1,1.22-.16a.3.3,0,0,0,.27-.33v-4.99a.323.323,0,0,0-.08-.21.252.252,0,0,0-.2-.09Z" fill="#fff"/>
      <path id="Path_2" data-name="Path 2" d="M329.3,411.54a2.815,2.815,0,0,0-1.01-.7,3.839,3.839,0,0,0-1.42-.24,3.115,3.115,0,0,0-2.44.93,3.655,3.655,0,0,0-.84,2.54v1.34a4.471,4.471,0,0,0,.29,1.72,2.874,2.874,0,0,0,.76,1.09,2.7,2.7,0,0,0,1.08.58,4.771,4.771,0,0,0,1.25.17,11.951,11.951,0,0,0,1.39-.07c.42-.04.84-.11,1.27-.19a.384.384,0,0,0,.24-.11.371.371,0,0,0,.06-.23v-.5a.165.165,0,0,0-.07-.16.293.293,0,0,0-.16-.04h-.07c-.35.05-.76.09-1.25.12s-.95.04-1.39.04a2,2,0,0,1-1.54-.55,2.681,2.681,0,0,1-.52-1.87v-.21h4.96c.19,0,.28-.11.28-.33v-.8a4.617,4.617,0,0,0-.21-1.43,3.015,3.015,0,0,0-.61-1.1Zm-.48,2.66h-3.93v-.13a2.6,2.6,0,0,1,.51-1.77,2.255,2.255,0,0,1,2.94-.03,2.676,2.676,0,0,1,.48,1.8v.13Z" fill="#fff"/>
      <path id="Path_3" data-name="Path 3" d="M335.58,410.6a4,4,0,0,0-1.2.17,7.1,7.1,0,0,0-1.16.52V411a.323.323,0,0,0-.08-.21.252.252,0,0,0-.2-.09h-.74a.252.252,0,0,0-.2.09.323.323,0,0,0-.08.21v7.57a.323.323,0,0,0,.08.21.252.252,0,0,0,.2.09h.73a.308.308,0,0,0,.3-.3v-6.25a7.011,7.011,0,0,1,1.02-.41,3.138,3.138,0,0,1,.98-.16,2.3,2.3,0,0,1,.73.1,1.039,1.039,0,0,1,.51.32,1.535,1.535,0,0,1,.3.6,4.033,4.033,0,0,1,.1.94v4.87a.308.308,0,0,0,.3.3h.71a.308.308,0,0,0,.3-.3V413.7a3.714,3.714,0,0,0-.62-2.29,2.342,2.342,0,0,0-1.97-.8Z" fill="#fff"/>
      <path id="Path_4" data-name="Path 4" d="M345.64,411.54a2.815,2.815,0,0,0-1.01-.7,3.839,3.839,0,0,0-1.42-.24,3.115,3.115,0,0,0-2.44.93,3.655,3.655,0,0,0-.84,2.54v1.34a4.471,4.471,0,0,0,.29,1.72,2.874,2.874,0,0,0,.76,1.09,2.7,2.7,0,0,0,1.08.58,4.771,4.771,0,0,0,1.25.17,11.951,11.951,0,0,0,1.39-.07c.42-.04.84-.11,1.27-.19a.384.384,0,0,0,.24-.11.371.371,0,0,0,.06-.23v-.5a.165.165,0,0,0-.07-.16.293.293,0,0,0-.16-.04h-.07c-.35.05-.76.09-1.25.12s-.95.04-1.39.04a2,2,0,0,1-1.54-.55,2.681,2.681,0,0,1-.52-1.87v-.21h4.96c.19,0,.28-.11.28-.33v-.8a4.617,4.617,0,0,0-.21-1.43,3.015,3.015,0,0,0-.61-1.1Zm-.48,2.66h-3.93v-.13a2.6,2.6,0,0,1,.51-1.77,2.255,2.255,0,0,1,2.94-.03,2.676,2.676,0,0,1,.48,1.8v.13Z" fill="#fff"/>
      <path id="Path_5" data-name="Path 5" d="M351.61,410.6a3.289,3.289,0,0,0-1.02.16,4.3,4.3,0,0,0-1.08.56V411a.323.323,0,0,0-.08-.21.252.252,0,0,0-.2-.09h-.7a.252.252,0,0,0-.2.09.323.323,0,0,0-.08.21v7.57a.323.323,0,0,0,.08.21.252.252,0,0,0,.2.09h.73a.308.308,0,0,0,.3-.3v-6.21a4.171,4.171,0,0,1,1.05-.48,3.715,3.715,0,0,1,1-.14c.21,0,.31-.09.31-.26v-.62c0-.18-.1-.27-.31-.27Z" fill="#fff"/>
      <path id="Path_6" data-name="Path 6" d="M355.72,410.6a12.093,12.093,0,0,0-1.3.06c-.36.04-.7.08-1,.13-.21.03-.31.12-.31.28v.52a.2.2,0,0,0,.08.19.381.381,0,0,0,.19.04h.07c.3-.03.63-.06.99-.08s.79-.04,1.28-.04a1.661,1.661,0,0,1,1.23.37,1.866,1.866,0,0,1,.36,1.31v.59h-1.1a8.042,8.042,0,0,0-1.68.15,3.067,3.067,0,0,0-1.11.45,1.8,1.8,0,0,0-.61.76,2.81,2.81,0,0,0-.19,1.05v.18a2.981,2.981,0,0,0,.2,1.16,1.955,1.955,0,0,0,.53.74,1.817,1.817,0,0,0,.77.39,3.908,3.908,0,0,0,.91.11,3.388,3.388,0,0,0,1.19-.21,6.885,6.885,0,0,0,1.1-.52v.33a.308.308,0,0,0,.3.3h.68a.308.308,0,0,0,.3-.3v-5.18a2.948,2.948,0,0,0-.68-2.05,2.9,2.9,0,0,0-2.22-.74Zm1.59,6.71a5.427,5.427,0,0,1-1.01.45,3.3,3.3,0,0,1-.99.15,1.641,1.641,0,0,1-1.01-.27,1.294,1.294,0,0,1-.36-1.08v-.18a1.951,1.951,0,0,1,.1-.68.908.908,0,0,1,.36-.44,1.837,1.837,0,0,1,.7-.25,6.843,6.843,0,0,1,1.11-.08h1.1v2.39Z" fill="#fff"/>
      <path id="Path_7" data-name="Path 7" d="M361.82,407.7h-.77a.256.256,0,0,0-.19.08.272.272,0,0,0-.07.2v10.58a.314.314,0,0,0,.07.21.232.232,0,0,0,.19.09h.77a.232.232,0,0,0,.19-.09.314.314,0,0,0,.07-.21V407.98a.272.272,0,0,0-.07-.2A.256.256,0,0,0,361.82,407.7Z" fill="#fff"/>
      <path id="Path_8" data-name="Path 8" d="M374.12,407.82c-.16,0-.36-.02-.59-.04l-.76-.03c-.27,0-.54,0-.81-.01h-.73a3.7,3.7,0,0,0-2.37.64,2.567,2.567,0,0,0-.79,2.12v5.71a2.553,2.553,0,0,0,.79,2.12,3.7,3.7,0,0,0,2.37.64h.74c.28,0,.55,0,.82-.01s.53-.02.76-.02a3.7,3.7,0,0,0,.56-.04.144.144,0,0,0,.11-.07.284.284,0,0,0,.04-.13v-.76c0-.12-.05-.18-.16-.18h-2.86a4.732,4.732,0,0,1-.95-.08,1.057,1.057,0,0,1-.55-.27.868.868,0,0,1-.26-.48,3.5,3.5,0,0,1-.07-.72v-2.5h4.56a.308.308,0,0,0,.3-.3v-.56a.308.308,0,0,0-.3-.3h-4.56v-2.06a2.937,2.937,0,0,1,.07-.71.868.868,0,0,1,.26-.48,1.233,1.233,0,0,1,.55-.27,4.732,4.732,0,0,1,.95-.08h2.86c.11,0,.16-.06.16-.18v-.74a.344.344,0,0,0-.04-.13.144.144,0,0,0-.11-.07Z" fill="#fff"/>
      <path id="Path_9" data-name="Path 9" d="M379.76,410.6a4,4,0,0,0-1.2.17,7.1,7.1,0,0,0-1.16.52V411a.323.323,0,0,0-.08-.21.252.252,0,0,0-.2-.09h-.74a.252.252,0,0,0-.2.09.323.323,0,0,0-.08.21v7.57a.323.323,0,0,0,.08.21.252.252,0,0,0,.2.09h.73a.308.308,0,0,0,.3-.3v-6.25a7.011,7.011,0,0,1,1.02-.41,3.138,3.138,0,0,1,.98-.16,2.3,2.3,0,0,1,.73.1,1.039,1.039,0,0,1,.51.32,1.535,1.535,0,0,1,.3.6,4.033,4.033,0,0,1,.1.94v4.87a.308.308,0,0,0,.3.3h.71a.308.308,0,0,0,.3-.3V413.7a3.714,3.714,0,0,0-.62-2.29,2.342,2.342,0,0,0-1.97-.8Z" fill="#fff"/>
      <path id="Path_10" data-name="Path 10" d="M388.09,417.9h-.83a.905.905,0,0,1-.62-.16,1.112,1.112,0,0,1-.18-.77V411.8h1.6a.308.308,0,0,0,.3-.3V411a.308.308,0,0,0-.3-.3h-1.6v-1.62a.249.249,0,0,0-.07-.19.236.236,0,0,0-.16-.07h-.04l-.77.12a.281.281,0,0,0-.27.3v1.45h-1.44c-.19,0-.28.09-.28.27v.4c0,.16.09.25.28.27l1.44.16v5.18a3,3,0,0,0,.13.99,1.372,1.372,0,0,0,.37.61,1.246,1.246,0,0,0,.62.3,4.622,4.622,0,0,0,.9.08,3.94,3.94,0,0,0,.47-.02c.18-.01.34-.03.49-.05.18-.03.27-.12.27-.26v-.53c0-.14-.1-.21-.31-.21Z" fill="#fff"/>
      <path id="Path_11" data-name="Path 11" d="M395.24,411.54a2.815,2.815,0,0,0-1.01-.7,3.839,3.839,0,0,0-1.42-.24,3.115,3.115,0,0,0-2.44.93,3.655,3.655,0,0,0-.84,2.54v1.34a4.471,4.471,0,0,0,.29,1.72,2.874,2.874,0,0,0,.76,1.09,2.7,2.7,0,0,0,1.08.58,4.771,4.771,0,0,0,1.25.17,11.951,11.951,0,0,0,1.39-.07c.42-.04.84-.11,1.27-.19a.384.384,0,0,0,.24-.11.372.372,0,0,0,.06-.23v-.5a.165.165,0,0,0-.07-.16.293.293,0,0,0-.16-.04h-.07c-.35.05-.76.09-1.25.12s-.95.04-1.39.04a2,2,0,0,1-1.54-.55,2.681,2.681,0,0,1-.52-1.87v-.21h4.96c.19,0,.28-.11.28-.33v-.8a4.617,4.617,0,0,0-.21-1.43,3.015,3.015,0,0,0-.61-1.1Zm-.48,2.66h-3.93v-.13a2.6,2.6,0,0,1,.51-1.77,2.255,2.255,0,0,1,2.94-.03,2.659,2.659,0,0,1,.48,1.8v.13Z" fill="#fff"/>
      <path id="Path_12" data-name="Path 12" d="M401.21,410.6a3.289,3.289,0,0,0-1.02.16,4.3,4.3,0,0,0-1.08.56V411a.323.323,0,0,0-.08-.21.252.252,0,0,0-.2-.09h-.7a.252.252,0,0,0-.2.09.323.323,0,0,0-.08.21v7.57a.323.323,0,0,0,.08.21.252.252,0,0,0,.2.09h.73a.308.308,0,0,0,.3-.3v-6.21a4.171,4.171,0,0,1,1.05-.48,3.715,3.715,0,0,1,1-.14c.21,0,.31-.09.31-.26v-.62c0-.18-.1-.27-.31-.27Z" fill="#fff"/>
      <path id="Path_13" data-name="Path 13" d="M406.95,417.9h-.83a.905.905,0,0,1-.62-.16,1.112,1.112,0,0,1-.18-.77V411.8h1.6a.308.308,0,0,0,.3-.3V411a.308.308,0,0,0-.3-.3h-1.6v-1.62a.249.249,0,0,0-.07-.19.213.213,0,0,0-.16-.07h-.04l-.77.12a.281.281,0,0,0-.27.3v1.45h-1.44c-.19,0-.28.09-.28.27v.4c0,.16.09.25.28.27l1.44.16v5.18a3,3,0,0,0,.13.99,1.372,1.372,0,0,0,.37.61,1.246,1.246,0,0,0,.62.3,4.622,4.622,0,0,0,.9.08,4.189,4.189,0,0,0,.48-.02c.18-.01.34-.03.49-.05.18-.03.27-.12.27-.26v-.53c0-.14-.1-.21-.31-.21Z" fill="#fff"/>
      <path id="Path_14" data-name="Path 14" d="M411.43,410.6a12.093,12.093,0,0,0-1.3.06c-.36.04-.7.08-1,.13-.21.03-.31.12-.31.28v.52a.2.2,0,0,0,.08.19.381.381,0,0,0,.19.04h.07c.3-.03.63-.06.99-.08s.79-.04,1.28-.04a1.661,1.661,0,0,1,1.23.37,1.866,1.866,0,0,1,.36,1.31v.59h-1.1a8.042,8.042,0,0,0-1.68.15,3.067,3.067,0,0,0-1.11.45,1.724,1.724,0,0,0-.61.76,2.811,2.811,0,0,0-.19,1.05v.18a2.981,2.981,0,0,0,.2,1.16,1.955,1.955,0,0,0,.53.74,1.817,1.817,0,0,0,.77.39,3.908,3.908,0,0,0,.91.11,3.388,3.388,0,0,0,1.19-.21,6.885,6.885,0,0,0,1.1-.52v.33a.308.308,0,0,0,.3.3h.68a.308.308,0,0,0,.3-.3v-5.18a2.948,2.948,0,0,0-.68-2.05,2.9,2.9,0,0,0-2.22-.74Zm1.59,6.71a5.427,5.427,0,0,1-1.01.45,3.3,3.3,0,0,1-.99.15,1.641,1.641,0,0,1-1.01-.27,1.294,1.294,0,0,1-.36-1.08v-.18a1.951,1.951,0,0,1,.1-.68.908.908,0,0,1,.36-.44,1.837,1.837,0,0,1,.7-.25,6.843,6.843,0,0,1,1.11-.08h1.1v2.39Z" fill="#fff"/>
      <path id="Path_15" data-name="Path 15" d="M417.52,410.7h-.71a.308.308,0,0,0-.3.3v7.57a.308.308,0,0,0,.3.3h.71a.308.308,0,0,0,.3-.3V411a.308.308,0,0,0-.3-.3Z" fill="#fff"/>
      <path id="Path_16" data-name="Path 16" d="M417.55,407.61h-.76a.308.308,0,0,0-.3.3v1.19a.308.308,0,0,0,.3.3h.76a.308.308,0,0,0,.3-.3v-1.19a.308.308,0,0,0-.3-.3Z" fill="#fff"/>
      <path id="Path_17" data-name="Path 17" d="M423.68,410.6a4,4,0,0,0-1.2.17,7.1,7.1,0,0,0-1.16.52V411a.323.323,0,0,0-.08-.21.252.252,0,0,0-.2-.09h-.74a.252.252,0,0,0-.2.09.323.323,0,0,0-.08.21v7.57a.323.323,0,0,0,.08.21.252.252,0,0,0,.2.09h.73a.308.308,0,0,0,.3-.3v-6.25a7.011,7.011,0,0,1,1.02-.41,3.138,3.138,0,0,1,.98-.16,2.3,2.3,0,0,1,.73.1,1.039,1.039,0,0,1,.51.32,1.535,1.535,0,0,1,.3.6,4.033,4.033,0,0,1,.1.94v4.87a.308.308,0,0,0,.3.3h.71a.308.308,0,0,0,.3-.3V413.7a3.714,3.714,0,0,0-.62-2.29,2.342,2.342,0,0,0-1.97-.8Z" fill="#fff"/>
      <path id="Path_18" data-name="Path 18" d="M437.4,411.17a1.9,1.9,0,0,0-.76-.45,3.188,3.188,0,0,0-.94-.13,4.739,4.739,0,0,0-1.21.16,6.052,6.052,0,0,0-1.25.45,1.644,1.644,0,0,0-.65-.47,2.383,2.383,0,0,0-.84-.14,3.2,3.2,0,0,0-1.17.21,5.075,5.075,0,0,0-.99.49v-.28a.323.323,0,0,0-.08-.21.252.252,0,0,0-.2-.09h-.74a.252.252,0,0,0-.2.09.323.323,0,0,0-.08.21v7.57a.314.314,0,0,0,.07.21.22.22,0,0,0,.19.09h.79a.232.232,0,0,0,.19-.09.314.314,0,0,0,.07-.21v-6.26c.32-.16.63-.29.94-.41a2.624,2.624,0,0,1,.87-.17,1.9,1.9,0,0,1,.5.06.77.77,0,0,1,.36.23,1.083,1.083,0,0,1,.22.47,4.116,4.116,0,0,1,.07.79v5.28a.314.314,0,0,0,.07.21.22.22,0,0,0,.19.09h.79a.232.232,0,0,0,.19-.09.314.314,0,0,0,.07-.21v-5.28a4.416,4.416,0,0,0-.13-1.16,9,9,0,0,1,.88-.28,3.344,3.344,0,0,1,.85-.12,1.788,1.788,0,0,1,.53.07.979.979,0,0,1,.43.25,1.216,1.216,0,0,1,.28.49,2.481,2.481,0,0,1,.1.77v5.25a.308.308,0,0,0,.3.3h.71a.308.308,0,0,0,.3-.3v-5.25a3.8,3.8,0,0,0-.19-1.3,2.17,2.17,0,0,0-.51-.85Z" fill="#fff"/>
      <path id="Path_19" data-name="Path 19" d="M445.57,411.54a2.815,2.815,0,0,0-1.01-.7,3.839,3.839,0,0,0-1.42-.24,3.115,3.115,0,0,0-2.44.93,3.655,3.655,0,0,0-.84,2.54v1.34a4.471,4.471,0,0,0,.29,1.72,2.768,2.768,0,0,0,.76,1.09,2.7,2.7,0,0,0,1.08.58,4.771,4.771,0,0,0,1.25.17,11.951,11.951,0,0,0,1.39-.07c.42-.04.84-.11,1.27-.19a.384.384,0,0,0,.24-.11.371.371,0,0,0,.06-.23v-.5a.165.165,0,0,0-.07-.16.293.293,0,0,0-.16-.04h-.07c-.35.05-.76.09-1.25.12s-.95.04-1.39.04a2,2,0,0,1-1.54-.55,2.681,2.681,0,0,1-.52-1.87v-.21h4.96c.19,0,.28-.11.28-.33v-.8a4.617,4.617,0,0,0-.21-1.43,3.015,3.015,0,0,0-.61-1.1Zm-.48,2.66h-3.93v-.13a2.6,2.6,0,0,1,.51-1.77,2.255,2.255,0,0,1,2.94-.03,2.676,2.676,0,0,1,.48,1.8v.13Z" fill="#fff"/>
      <path id="Path_20" data-name="Path 20" d="M451.86,410.6a4,4,0,0,0-1.2.17,7.1,7.1,0,0,0-1.16.52V411a.323.323,0,0,0-.08-.21.252.252,0,0,0-.2-.09h-.74a.252.252,0,0,0-.2.09.323.323,0,0,0-.08.21v7.57a.323.323,0,0,0,.08.21.252.252,0,0,0,.2.09h.73a.308.308,0,0,0,.3-.3v-6.25a7.011,7.011,0,0,1,1.02-.41,3.4,3.4,0,0,1,.98-.16,2.3,2.3,0,0,1,.73.1,1.039,1.039,0,0,1,.51.32,1.535,1.535,0,0,1,.3.6,4.033,4.033,0,0,1,.1.94v4.87a.308.308,0,0,0,.3.3h.71a.308.308,0,0,0,.3-.3V413.7a3.714,3.714,0,0,0-.62-2.29,2.342,2.342,0,0,0-1.97-.8Z" fill="#fff"/>
      <path id="Path_21" data-name="Path 21" d="M460.18,417.9h-.83a.905.905,0,0,1-.62-.16,1.112,1.112,0,0,1-.18-.77V411.8h1.6a.308.308,0,0,0,.3-.3V411a.308.308,0,0,0-.3-.3h-1.6v-1.62a.249.249,0,0,0-.07-.19.236.236,0,0,0-.16-.07h-.04l-.77.12a.281.281,0,0,0-.27.3v1.45H455.8c-.19,0-.28.09-.28.27v.4c0,.16.09.25.28.27l1.44.16v5.18a3,3,0,0,0,.13.99,1.372,1.372,0,0,0,.37.61,1.246,1.246,0,0,0,.62.3,4.622,4.622,0,0,0,.9.08,4.189,4.189,0,0,0,.48-.02c.18-.01.34-.03.49-.05.18-.03.27-.12.27-.26v-.53c0-.14-.1-.21-.31-.21Z" fill="#fff"/>
      <path id="Path_22" data-name="Path 22" d="M470.73,408.84a1.616,1.616,0,0,0-.26-.56,1.35,1.35,0,0,0-.38-.34,1.43,1.43,0,0,0-.43-.17,2.152,2.152,0,0,0-.43-.04,2.374,2.374,0,0,0-.44.05,1.206,1.206,0,0,0-.44.18,1.5,1.5,0,0,0-.38.34,1.534,1.534,0,0,0-.26.56l-2.75,9.66a.584.584,0,0,0-.01.1c0,.16.08.24.25.24h.88a.213.213,0,0,0,.16-.07.336.336,0,0,0,.1-.16l.95-3.41h3.84l.96,3.41a.507.507,0,0,0,.09.16.218.218,0,0,0,.16.07h.88c.17,0,.25-.08.25-.24a.251.251,0,0,0-.01-.1l-2.75-9.68Zm-3.15,5.21,1.35-4.88q.075-.27.3-.27c.14,0,.23.09.28.27l1.35,4.88Z" fill="#fff"/>
      <path id="Path_23" data-name="Path 23" d="M480.75,410.7h-.73a.308.308,0,0,0-.3.3v6.25a7.011,7.011,0,0,1-1.02.41,3.138,3.138,0,0,1-.98.16,2.219,2.219,0,0,1-.73-.1,1.056,1.056,0,0,1-.5-.32,1.535,1.535,0,0,1-.3-.6,4.1,4.1,0,0,1-.1-.94v-4.87a.308.308,0,0,0-.3-.3h-.71a.308.308,0,0,0-.3.3v4.88a3.714,3.714,0,0,0,.62,2.29,2.342,2.342,0,0,0,1.97.8,4.043,4.043,0,0,0,1.2-.17,7.1,7.1,0,0,0,1.16-.52v.29a.323.323,0,0,0,.08.21.252.252,0,0,0,.2.09h.74a.252.252,0,0,0,.2-.09.323.323,0,0,0,.08-.21v-7.57a.323.323,0,0,0-.08-.21.252.252,0,0,0-.2-.09Z" fill="#fff"/>
      <path id="Path_24" data-name="Path 24" d="M487.07,417.9h-.83a.905.905,0,0,1-.62-.16,1.112,1.112,0,0,1-.18-.77V411.8h1.6a.308.308,0,0,0,.3-.3V411a.308.308,0,0,0-.3-.3h-1.6v-1.62a.249.249,0,0,0-.07-.19.213.213,0,0,0-.16-.07h-.04l-.77.12a.281.281,0,0,0-.27.3v1.45h-1.44c-.19,0-.28.09-.28.27v.4c0,.16.09.25.28.27l1.44.16v5.18a3,3,0,0,0,.13.99,1.372,1.372,0,0,0,.37.61,1.246,1.246,0,0,0,.62.3,4.622,4.622,0,0,0,.9.08,4.189,4.189,0,0,0,.48-.02c.18-.01.34-.03.49-.05.18-.03.27-.12.27-.26v-.53c0-.14-.1-.21-.31-.21Z" fill="#fff"/>
      <path id="Path_25" data-name="Path 25" d="M494.27,411.32a2.191,2.191,0,0,0-.85-.55,3.138,3.138,0,0,0-1.08-.18,6.914,6.914,0,0,0-1.11.11,4.617,4.617,0,0,0-1.16.35v-3.06a.323.323,0,0,0-.08-.21.252.252,0,0,0-.2-.09h-.74a.252.252,0,0,0-.2.09.323.323,0,0,0-.08.21v10.57a.323.323,0,0,0,.08.21.252.252,0,0,0,.2.09h.73a.308.308,0,0,0,.3-.3v-6.41a4.6,4.6,0,0,1,.53-.19c.19-.05.38-.1.57-.13s.36-.06.53-.07.3-.02.42-.02a1.6,1.6,0,0,1,1.16.42,2.1,2.1,0,0,1,.43,1.53v4.88a.308.308,0,0,0,.3.3h.71a.308.308,0,0,0,.3-.3v-4.88a4.472,4.472,0,0,0-.19-1.4,2.5,2.5,0,0,0-.55-.96Z" fill="#fff"/>
      <path id="Path_26" data-name="Path 26" d="M502.54,411.59a2.686,2.686,0,0,0-1.04-.73,3.812,3.812,0,0,0-1.44-.26,3.722,3.722,0,0,0-1.43.26,2.84,2.84,0,0,0-1.03.73,3,3,0,0,0-.62,1.14,4.946,4.946,0,0,0-.21,1.48v1.13a4.9,4.9,0,0,0,.21,1.48,3.214,3.214,0,0,0,.62,1.14,2.726,2.726,0,0,0,1.03.73,3.723,3.723,0,0,0,1.43.26,3.812,3.812,0,0,0,1.44-.26,2.8,2.8,0,0,0,1.04-.73,3.065,3.065,0,0,0,.62-1.14,4.946,4.946,0,0,0,.21-1.48v-1.13a4.9,4.9,0,0,0-.21-1.48A3.215,3.215,0,0,0,502.54,411.59Zm-.47,3.75a3.049,3.049,0,0,1-.48,1.82,1.757,1.757,0,0,1-1.52.66,1.726,1.726,0,0,1-1.52-.67,3.132,3.132,0,0,1-.47-1.81v-1.13a3.122,3.122,0,0,1,.47-1.82,1.737,1.737,0,0,1,1.51-.66,1.756,1.756,0,0,1,1.53.67,3.057,3.057,0,0,1,.47,1.81v1.13Z" fill="#fff"/>
      <path id="Path_27" data-name="Path 27" d="M508.47,410.6a3.289,3.289,0,0,0-1.02.16,4.3,4.3,0,0,0-1.08.56V411a.323.323,0,0,0-.08-.21.252.252,0,0,0-.2-.09h-.7a.252.252,0,0,0-.2.09.323.323,0,0,0-.08.21v7.57a.323.323,0,0,0,.08.21.252.252,0,0,0,.2.09h.73a.308.308,0,0,0,.3-.3v-6.21a4.171,4.171,0,0,1,1.05-.48,3.715,3.715,0,0,1,1-.14c.21,0,.31-.09.31-.26v-.62c0-.18-.1-.27-.31-.27Z" fill="#fff"/>
      <path id="Path_28" data-name="Path 28" d="M511.37,410.7h-.71a.308.308,0,0,0-.3.3v7.57a.308.308,0,0,0,.3.3h.71a.308.308,0,0,0,.3-.3V411a.308.308,0,0,0-.3-.3Z" fill="#fff"/>
      <path id="Path_29" data-name="Path 29" d="M511.4,407.61h-.76a.308.308,0,0,0-.3.3v1.19a.308.308,0,0,0,.3.3h.76a.308.308,0,0,0,.3-.3v-1.19a.308.308,0,0,0-.3-.3Z" fill="#fff"/>
      <path id="Path_30" data-name="Path 30" d="M517.88,417.9h-.83a.905.905,0,0,1-.62-.16,1.112,1.112,0,0,1-.18-.77V411.8h1.6a.308.308,0,0,0,.3-.3V411a.308.308,0,0,0-.3-.3h-1.6v-1.62a.249.249,0,0,0-.07-.19.213.213,0,0,0-.16-.07h-.04l-.77.12a.281.281,0,0,0-.27.3v1.45H513.5c-.19,0-.28.09-.28.27v.4c0,.16.09.25.28.27l1.44.16v5.18a3,3,0,0,0,.13.99,1.372,1.372,0,0,0,.37.61,1.246,1.246,0,0,0,.62.3,4.623,4.623,0,0,0,.9.08,4.188,4.188,0,0,0,.48-.02c.18-.01.34-.03.49-.05.18-.03.27-.12.27-.26v-.53c0-.14-.1-.21-.31-.21Z" fill="#fff"/>
      <path id="Path_31" data-name="Path 31" d="M525.67,410.7h-.83a.241.241,0,0,0-.18.07.391.391,0,0,0-.1.16l-1.81,6.78h-.24a.614.614,0,0,1-.15-.05.51.51,0,0,1-.13-.27l-1.75-6.44a.392.392,0,0,0-.1-.16.2.2,0,0,0-.16-.07h-.82c-.18,0-.27.08-.27.25a.251.251,0,0,0,.01.1l1.97,6.78a2.721,2.721,0,0,0,.22.55,1.038,1.038,0,0,0,.26.31.672.672,0,0,0,.3.13,1.656,1.656,0,0,0,.32.03h.21l-.15.61a2.413,2.413,0,0,1-.22.63,1.193,1.193,0,0,1-.3.39.915.915,0,0,1-.41.19,2.95,2.95,0,0,1-.55.05,5.651,5.651,0,0,1-.66-.03q-.405-.03-.66-.06h-.04c-.19,0-.28.08-.28.24v.55a.16.16,0,0,0,.09.16.952.952,0,0,0,.22.07,5.091,5.091,0,0,0,.59.1c.23.02.45.04.66.04a4.183,4.183,0,0,0,1.08-.12,2.044,2.044,0,0,0,.75-.38,1.875,1.875,0,0,0,.51-.68,7.669,7.669,0,0,0,.38-1.02l2.45-8.55a.584.584,0,0,0,.01-.1c0-.17-.08-.25-.24-.25Z" fill="#fff"/>
      <path id="Path_32" data-name="Path 32" d="M339.23,399.85h-.82a.526.526,0,0,0-.35.13.427.427,0,0,0-.16.34v1.13a.38.38,0,0,0,.16.3.518.518,0,0,0,.35.14h.82a.494.494,0,0,0,.34-.14.4.4,0,0,0,.15-.3v-1.13a.433.433,0,0,0-.15-.34A.533.533,0,0,0,339.23,399.85Z" fill="#fff"/>
      <path id="Path_33" data-name="Path 33" d="M335.79,401.88a.453.453,0,0,0,.33-.14.4.4,0,0,0,.15-.3v-1.13a.46.46,0,0,0-.14-.34.52.52,0,0,0-.35-.13h-.82a.491.491,0,0,0-.35.13.444.444,0,0,0-.14.34v1.13a.422.422,0,0,0,.14.3.483.483,0,0,0,.35.14h.82Z" fill="#fff"/>
      <path id="Path_34" data-name="Path 34" d="M345.75,385.87h.89a.452.452,0,0,0,.34-.13.4.4,0,0,0,.13-.31V384.3a.494.494,0,0,0-.13-.34.482.482,0,0,0-.32-.13h-.91a.477.477,0,0,0-.33.13.412.412,0,0,0-.14.34v1.13a.387.387,0,0,0,.13.31A.494.494,0,0,0,345.75,385.87Z" fill="#fff"/>
      <path id="Path_35" data-name="Path 35" d="M349.92,397.4c.01-.21.03-.44.04-.69s.02-.51.03-.79.01-.54.01-.82v-6.25a.418.418,0,0,0-.06-.25.424.424,0,0,0-.27-.13,7.469,7.469,0,0,0-1.4-.24c-.56-.05-1.13-.07-1.72-.07a5.045,5.045,0,0,0-3.55,1.19,4.294,4.294,0,0,0-1.29,3.31v.5a5.313,5.313,0,0,0,.26,1.78,3.345,3.345,0,0,0,.66,1.15h-2.72a3.549,3.549,0,0,1-.44-.02,3.855,3.855,0,0,1-.49-.07,1.523,1.523,0,0,1-.44-.15.472.472,0,0,1-.26-.26v-5.76a.363.363,0,0,0-.12-.28.378.378,0,0,0-.28-.12h-.96a.363.363,0,0,0-.28.12.378.378,0,0,0-.12.28v5.49a.573.573,0,0,1-.16.43.941.941,0,0,1-.39.23,1.857,1.857,0,0,1-.48.09c-.17.01-.32.02-.46.02h-10.3a2.069,2.069,0,0,1-1.07-.24c-.27-.16-.4-.52-.4-1.08v-5.88a.6.6,0,0,0-.05-.26.37.37,0,0,0-.26-.14c-.15-.04-.34-.08-.54-.12s-.43-.07-.66-.09-.46-.05-.7-.06-.45-.02-.63-.02a8.768,8.768,0,0,0-2.19.26,4.736,4.736,0,0,0-1.72.82,3.69,3.69,0,0,0-1.12,1.43,5.029,5.029,0,0,0-.4,2.11v.54a4.246,4.246,0,0,0,1.05,3.1,4.019,4.019,0,0,0,2.99,1.07h.19a6.3,6.3,0,0,0,1.62-.2,1.948,1.948,0,0,0,1.1-.66,1.887,1.887,0,0,0,.97.94,4.072,4.072,0,0,0,1.58.27h10.28a7.228,7.228,0,0,0,1.31-.14,2.9,2.9,0,0,0,1.25-.55,2.5,2.5,0,0,0,1.22.55,7.884,7.884,0,0,0,1.39.14h6.18c.56,0,1.11,0,1.64-.01s1.1-.04,1.69-.09c.29-.03.45-.16.46-.4Zm-28.41-2.68a.931.931,0,0,1-.17.56,1.18,1.18,0,0,1-.44.35,2.179,2.179,0,0,1-.61.17,4.825,4.825,0,0,1-.65.04h-.4a2.343,2.343,0,0,1-1.93-.7,3.031,3.031,0,0,1-.57-1.96v-.44a3.364,3.364,0,0,1,.26-1.4,2.217,2.217,0,0,1,.71-.88,2.631,2.631,0,0,1,1.08-.45,7.355,7.355,0,0,1,1.38-.13c.18,0,.38,0,.59.02s.45.03.73.06v4.77Zm26.73,1.36a9.814,9.814,0,0,1-1,.05c-.38,0-.73.01-1.05.01a2.566,2.566,0,0,1-2.06-.76,3.3,3.3,0,0,1-.66-2.21v-.46a2.93,2.93,0,0,1,.74-2.16,2.987,2.987,0,0,1,2.19-.73c.36,0,.69,0,.98.02a8.088,8.088,0,0,1,.86.08v6.16Z" fill="#fff"/>
      <path id="Path_36" data-name="Path 36" d="M363.24,386.73h.82a.484.484,0,0,0,.34-.13.388.388,0,0,0,.15-.31v-1.13a.422.422,0,0,0-.14-.33.52.52,0,0,0-.35-.13h-.82a.491.491,0,0,0-.35.13.437.437,0,0,0-.14.33v1.13a.4.4,0,0,0,.14.31.52.52,0,0,0,.35.13Z" fill="#fff"/>
      <path id="Path_37" data-name="Path 37" d="M366.67,386.73h.82a.484.484,0,0,0,.34-.13.388.388,0,0,0,.15-.31v-1.13a.4.4,0,0,0-.15-.33.533.533,0,0,0-.34-.13h-.82a.526.526,0,0,0-.35.13.422.422,0,0,0-.16.33v1.13a.359.359,0,0,0,.16.31A.56.56,0,0,0,366.67,386.73Z" fill="#fff"/>
      <path id="Path_38" data-name="Path 38" d="M376.95,397.85q.375-.03.69-.06a2.05,2.05,0,0,0,.48-.09.6.6,0,0,0,.33-.25,1.173,1.173,0,0,0,.13-.36,4.543,4.543,0,0,0,.06-.57c.01-.21.02-.43.03-.65s.01-.44.01-.65V382.58a.386.386,0,0,0-.1-.28.342.342,0,0,0-.27-.12h-1.03a.363.363,0,0,0-.28.12.378.378,0,0,0-.12.28v12.77c0,.36-.05.58-.16.65a1.685,1.685,0,0,1-.76.1h-1.84a3.549,3.549,0,0,1-.44-.02,3.855,3.855,0,0,1-.49-.07,1.523,1.523,0,0,1-.44-.15.472.472,0,0,1-.26-.26V382.58a.386.386,0,0,0-.1-.28.342.342,0,0,0-.27-.12h-1.03a.363.363,0,0,0-.28.12.378.378,0,0,0-.12.28v12.75a.573.573,0,0,1-.16.43.941.941,0,0,1-.39.23,1.857,1.857,0,0,1-.48.09c-.17.01-.32.02-.46.02h-1.28a3.549,3.549,0,0,1-.44-.02,3.855,3.855,0,0,1-.49-.07,1.523,1.523,0,0,1-.44-.15.472.472,0,0,1-.26-.26v-5.76a.363.363,0,0,0-.12-.28.378.378,0,0,0-.28-.12h-.96a.363.363,0,0,0-.28.12.378.378,0,0,0-.12.28v5.49a.573.573,0,0,1-.16.43.941.941,0,0,1-.39.23,1.857,1.857,0,0,1-.48.09c-.17.01-.32.02-.46.02H355.8v-6.26a.386.386,0,0,0-.1-.28.317.317,0,0,0-.25-.12h-1.03a.342.342,0,0,0-.27.12.4.4,0,0,0-.1.28v9.27a5.217,5.217,0,0,1-.1,1.1,1.117,1.117,0,0,1-.38.62,1.469,1.469,0,0,1-.71.27,8.619,8.619,0,0,1-1.13.06h-.44c-.24,0-.36.1-.36.29v.9a.34.34,0,0,0,.06.22.484.484,0,0,0,.27.12,3.4,3.4,0,0,0,.55.06c.23.01.38.02.45.02a5.59,5.59,0,0,0,1.96-.29,2.278,2.278,0,0,0,1.16-1.03,2.893,2.893,0,0,0,.31-.98,7.945,7.945,0,0,0,.08-1.23V397.9h7.01a7.228,7.228,0,0,0,1.31-.14,2.9,2.9,0,0,0,1.25-.55,2.5,2.5,0,0,0,1.22.55,7.884,7.884,0,0,0,1.39.14H369a7.228,7.228,0,0,0,1.31-.14,2.9,2.9,0,0,0,1.25-.55,2.158,2.158,0,0,0,.55.35,4,4,0,0,0,.67.21,5.368,5.368,0,0,0,.7.1c.24.02.46.03.67.03h1.24c.24,0,.49,0,.76-.01s.53-.02.78-.04Z" fill="#fff"/>
      <path id="Path_39" data-name="Path 39" d="M392.57,385.91h.82a.484.484,0,0,0,.34-.13.388.388,0,0,0,.15-.31v-1.13a.433.433,0,0,0-.15-.34.533.533,0,0,0-.34-.13h-.82a.526.526,0,0,0-.35.13.427.427,0,0,0-.16.34v1.13a.359.359,0,0,0,.16.31A.56.56,0,0,0,392.57,385.91Z" fill="#fff"/>
      <path id="Path_40" data-name="Path 40" d="M389.13,385.91h.82a.484.484,0,0,0,.34-.13.388.388,0,0,0,.15-.31v-1.13a.46.46,0,0,0-.14-.34.52.52,0,0,0-.35-.13h-.82a.491.491,0,0,0-.35.13.444.444,0,0,0-.14.34v1.13a.4.4,0,0,0,.14.31.52.52,0,0,0,.35.13Z" fill="#fff"/>
      <path id="Path_41" data-name="Path 41" d="M420.22,397.1a4.807,4.807,0,0,0,1.01-3.3v-1.07a4.672,4.672,0,0,0-1.07-3.31,4.162,4.162,0,0,0-3.16-1.13,4.259,4.259,0,0,0-3.21,1.15,4.544,4.544,0,0,0-1.12,3.31v2.01a2.675,2.675,0,0,1-.06.61.655.655,0,0,1-.24.39,1.6,1.6,0,0,1-.41.22,1.521,1.521,0,0,1-.46.1c-.15.01-.28.02-.38.02H396.59a2.069,2.069,0,0,1-1.07-.24c-.27-.16-.4-.52-.4-1.08V388.9a.6.6,0,0,0-.05-.26.37.37,0,0,0-.26-.14c-.15-.04-.34-.08-.54-.12s-.43-.07-.66-.09-.46-.05-.7-.06-.45-.02-.63-.02a8.768,8.768,0,0,0-2.19.26,4.736,4.736,0,0,0-1.72.82,3.69,3.69,0,0,0-1.12,1.43,5.029,5.029,0,0,0-.4,2.11v.54a4.246,4.246,0,0,0,1.05,3.1,4.019,4.019,0,0,0,2.99,1.07h.19a6.3,6.3,0,0,0,1.62-.2,1.948,1.948,0,0,0,1.1-.66,1.887,1.887,0,0,0,.97.94,4.072,4.072,0,0,0,1.58.27h14.42a5.451,5.451,0,0,0,1.61-.22,1.874,1.874,0,0,0,1.09-.79,3.02,3.02,0,0,0,1.41.99,5.9,5.9,0,0,0,2.06.32,4.188,4.188,0,0,0,3.27-1.12Zm-26.86-2.38a.931.931,0,0,1-.17.56,1.18,1.18,0,0,1-.44.35,2.179,2.179,0,0,1-.61.17,4.925,4.925,0,0,1-.65.04h-.4a2.343,2.343,0,0,1-1.93-.7,3.031,3.031,0,0,1-.57-1.96v-.44a3.364,3.364,0,0,1,.26-1.4,2.217,2.217,0,0,1,.71-.88,2.631,2.631,0,0,1,1.08-.45,7.352,7.352,0,0,1,1.38-.13c.18,0,.38,0,.59.02s.45.03.73.06v4.77Zm21.14.28a6.4,6.4,0,0,1-.08-1.15v-.92a3.525,3.525,0,0,1,.6-2.21,2.364,2.364,0,0,1,1.98-.76,2.206,2.206,0,0,1,1.92.77,3.746,3.746,0,0,1,.55,2.2v.77a3.388,3.388,0,0,1-.57,2.21,2.466,2.466,0,0,1-1.95.66,3.573,3.573,0,0,1-1.61-.32,1.734,1.734,0,0,1-.84-1.25Z" fill="#fff"/>
      <path id="Path_42" data-name="Path 42" d="M448.65,397.45a1.173,1.173,0,0,0,.13-.36,4.543,4.543,0,0,0,.06-.57c.01-.21.02-.43.03-.65s.01-.44.01-.65V382.58a.386.386,0,0,0-.1-.28.378.378,0,0,0-.27-.12h-1.03a.363.363,0,0,0-.28.12.378.378,0,0,0-.12.28v12.77c0,.36-.05.58-.16.65a1.685,1.685,0,0,1-.76.1h-4.19a2.224,2.224,0,0,0,.58-.6,4.973,4.973,0,0,0,.45-.86,5.624,5.624,0,0,0,.29-.99,5.207,5.207,0,0,0,.1-1.03v-.4a4.474,4.474,0,0,0-.35-1.84,3.245,3.245,0,0,0-.97-1.27,4.026,4.026,0,0,0-1.5-.72,7.529,7.529,0,0,0-1.89-.23,7.644,7.644,0,0,0-1.26.1,9.278,9.278,0,0,0-1.21.28,6.582,6.582,0,0,0-1.08.44,4.225,4.225,0,0,0-.85.58.862.862,0,0,0-.36.54l-.02.61a1.274,1.274,0,0,0,.01.19.286.286,0,0,0,.05.17l1.97,5.02h-8.27a3.7,3.7,0,0,1-.6-.04,1.014,1.014,0,0,1-.44-.17.748.748,0,0,1-.27-.37,1.939,1.939,0,0,1-.09-.66V382.56a.427.427,0,0,0-.1-.29.352.352,0,0,0-.27-.13h-1.03a.341.341,0,0,0-.28.13.4.4,0,0,0-.12.29v12.69a3.951,3.951,0,0,0,.18,1.3,1.941,1.941,0,0,0,.53.81,2.039,2.039,0,0,0,.86.42,5.136,5.136,0,0,0,1.17.12h18.38c.24,0,.49,0,.76-.01s.53-.02.79-.04.48-.04.69-.06a2.05,2.05,0,0,0,.48-.09.671.671,0,0,0,.34-.25Zm-6.99-4.77a4.072,4.072,0,0,1-.62,2.24,2.645,2.645,0,0,1-1.71,1.21h-1.55l-2.14-5.49a4.182,4.182,0,0,1,1.63-.67,8.473,8.473,0,0,1,1.4-.15,3.487,3.487,0,0,1,2.18.62,2.378,2.378,0,0,1,.8,2v.23Z" fill="#fff"/>
      <path id="Path_43" data-name="Path 43" d="M452.84,397.91h1.03a.322.322,0,0,0,.27-.13.427.427,0,0,0,.1-.29V382.58a.427.427,0,0,0-.1-.29.352.352,0,0,0-.27-.13h-1.03a.341.341,0,0,0-.28.13.4.4,0,0,0-.12.29v14.91a.4.4,0,0,0,.12.29A.389.389,0,0,0,452.84,397.91Z" fill="#fff"/>
      <path id="Path_44" data-name="Path 44" d="M468.33,385.91h.82a.484.484,0,0,0,.34-.13.388.388,0,0,0,.15-.31v-1.13a.433.433,0,0,0-.15-.34.533.533,0,0,0-.34-.13h-.82a.526.526,0,0,0-.35.13.427.427,0,0,0-.16.34v1.13a.359.359,0,0,0,.16.31A.56.56,0,0,0,468.33,385.91Z" fill="#fff"/>
      <path id="Path_45" data-name="Path 45" d="M464.9,385.91h.82a.484.484,0,0,0,.34-.13.388.388,0,0,0,.15-.31v-1.13a.46.46,0,0,0-.14-.34.52.52,0,0,0-.35-.13h-.82a.491.491,0,0,0-.35.13.444.444,0,0,0-.14.34v1.13a.366.366,0,0,0,.14.31.52.52,0,0,0,.35.13Z" fill="#fff"/>
      <path id="Path_46" data-name="Path 46" d="M483.4,386.85h2.83a.616.616,0,0,0,.26-.04q.09-.045.09-.21v-.34c0-.17-.12-.25-.36-.25h-1.4a.791.791,0,0,1-.31-.37,1.537,1.537,0,0,1-.15-.72c0-.63.37-.94,1.11-.94.07,0,.19,0,.36.01s.27.01.29.01c.18,0,.27-.08.27-.23v-.29c0-.11-.08-.2-.23-.25a3.036,3.036,0,0,0-.42-.06c-.14-.01-.27-.02-.38-.02a2.326,2.326,0,0,0-1.46.41,1.548,1.548,0,0,0-.51,1.29,2.876,2.876,0,0,0,.08.64,1.351,1.351,0,0,0,.27.55h-.36c-.25,0-.38.07-.38.21v.36c0,.17.13.25.38.25Z" fill="#fff"/>
      <path id="Path_47" data-name="Path 47" d="M493.89,401.88a.494.494,0,0,0,.34-.14.4.4,0,0,0,.15-.3v-1.13a.46.46,0,0,0-.14-.34.52.52,0,0,0-.35-.13h-.82a.491.491,0,0,0-.35.13.444.444,0,0,0-.14.34v1.13a.386.386,0,0,0,.14.3.483.483,0,0,0,.35.14h.82Z" fill="#fff"/>
      <path id="Path_48" data-name="Path 48" d="M497.66,401.75a.4.4,0,0,0,.15-.3v-1.13a.433.433,0,0,0-.15-.34.533.533,0,0,0-.34-.13h-.82a.526.526,0,0,0-.35.13.427.427,0,0,0-.16.34v1.13a.38.38,0,0,0,.16.3.518.518,0,0,0,.35.14h.82A.494.494,0,0,0,497.66,401.75Z" fill="#fff"/>
      <path id="Path_49" data-name="Path 49" d="M519.23,395.88c0-.22.01-.44.01-.65V382.59a.386.386,0,0,0-.1-.28.378.378,0,0,0-.27-.12h-1.03a.363.363,0,0,0-.28.12.378.378,0,0,0-.12.28v12.77c0,.36-.05.58-.16.65a1.685,1.685,0,0,1-.76.1h-2.43a8.016,8.016,0,0,0-.88.04,1.934,1.934,0,0,0-.69.19,1.477,1.477,0,0,0-.82,1.05,1.443,1.443,0,0,0-.04.23c-.01.11-.02.23-.03.35s-.01.23-.02.35-.01.2-.01.25a4.366,4.366,0,0,1-.52,2.26,2.089,2.089,0,0,1-1.84.71,2.17,2.17,0,0,1-1.91-.76,4.361,4.361,0,0,1-.5-2.33v-.52c.26,0,.55,0,.87-.01s.63-.02.94-.04.62-.05.91-.08a3.506,3.506,0,0,0,.75-.16,3.643,3.643,0,0,0,2.29-1.74,6.183,6.183,0,0,0,.74-3.14v-.31a3.73,3.73,0,0,0-1.29-3.18,5.628,5.628,0,0,0-3.51-.98c-.54,0-1.07.02-1.57.06a7.783,7.783,0,0,0-1.42.25.543.543,0,0,0-.48.54v6.99h-7.05a3.549,3.549,0,0,1-.44-.02,3.855,3.855,0,0,1-.49-.07,1.523,1.523,0,0,1-.44-.15.472.472,0,0,1-.26-.26v-5.76a.363.363,0,0,0-.12-.28.378.378,0,0,0-.28-.12h-.96a.363.363,0,0,0-.28.12.42.42,0,0,0-.12.28v5.49a.573.573,0,0,1-.16.43.941.941,0,0,1-.39.23,1.857,1.857,0,0,1-.48.09c-.17.01-.32.02-.46.02h-5.61a3.549,3.549,0,0,1-.44-.02,3.855,3.855,0,0,1-.49-.07,1.523,1.523,0,0,1-.44-.15.472.472,0,0,1-.26-.26v-5.76a.363.363,0,0,0-.12-.28.378.378,0,0,0-.28-.12h-.96a.363.363,0,0,0-.28.12.42.42,0,0,0-.12.28v5.49a.573.573,0,0,1-.16.43.9.9,0,0,1-.39.23,1.857,1.857,0,0,1-.48.09c-.17.01-.32.02-.46.02h-10.3a2.069,2.069,0,0,1-1.07-.24c-.27-.16-.4-.52-.4-1.08v-5.88a.6.6,0,0,0-.05-.26.37.37,0,0,0-.26-.14c-.15-.04-.34-.08-.54-.12s-.43-.07-.66-.09-.46-.05-.7-.06-.45-.02-.63-.02a8.768,8.768,0,0,0-2.19.26,4.736,4.736,0,0,0-1.72.82,3.69,3.69,0,0,0-1.12,1.43,5.029,5.029,0,0,0-.4,2.11v.54a4.246,4.246,0,0,0,1.05,3.1,4.019,4.019,0,0,0,2.99,1.07h.19a6.3,6.3,0,0,0,1.62-.2,1.948,1.948,0,0,0,1.1-.66,1.887,1.887,0,0,0,.97.94,4.072,4.072,0,0,0,1.58.27h10.28a7.228,7.228,0,0,0,1.31-.14,2.9,2.9,0,0,0,1.25-.55,2.5,2.5,0,0,0,1.22.55,7.884,7.884,0,0,0,1.39.14h5.32a7.228,7.228,0,0,0,1.31-.14,2.9,2.9,0,0,0,1.25-.55,2.5,2.5,0,0,0,1.22.55,7.884,7.884,0,0,0,1.39.14h7.01v.69a8.644,8.644,0,0,0,.2,1.92,3.441,3.441,0,0,0,.68,1.44,3,3,0,0,0,1.29.91,5.607,5.607,0,0,0,2.02.31,3.7,3.7,0,0,0,3.04-1.14,5.462,5.462,0,0,0,.98-3.32l.02-.77q.12-.015.51-.03c.26,0,.5-.01.72-.01h1.42c.24,0,.49,0,.76-.01s.53-.02.79-.04.48-.04.69-.06a2.049,2.049,0,0,0,.48-.09.671.671,0,0,0,.34-.25,1.174,1.174,0,0,0,.13-.36,4.538,4.538,0,0,0,.06-.57c.01-.21.02-.43.03-.65Zm-12.4-5.86a7.727,7.727,0,0,1,.8-.08c.25-.01.57-.02.94-.02a5.334,5.334,0,0,1,1.25.13,2.326,2.326,0,0,1,.94.43,2.022,2.022,0,0,1,.61.81,3.093,3.093,0,0,1,.22,1.26v.38a3.578,3.578,0,0,1-.71,2.38,2.972,2.972,0,0,1-2.37.83h-1.67v-6.09Zm-37.7,4.71a.931.931,0,0,1-.17.56,1.18,1.18,0,0,1-.44.35,2.179,2.179,0,0,1-.61.17,4.825,4.825,0,0,1-.65.04h-.4a2.343,2.343,0,0,1-1.93-.7,3.031,3.031,0,0,1-.57-1.96v-.44a3.364,3.364,0,0,1,.26-1.4,2.217,2.217,0,0,1,.71-.88,2.631,2.631,0,0,1,1.08-.45,7.355,7.355,0,0,1,1.38-.13c.18,0,.38,0,.59.02s.45.03.73.06v4.77Z" fill="#fff"/>
      <path id="Path_50" data-name="Path 50" d="M523.2,397.91h1.03a.323.323,0,0,0,.27-.13.427.427,0,0,0,.1-.29V382.58a.427.427,0,0,0-.1-.29.351.351,0,0,0-.27-.13H523.2a.341.341,0,0,0-.28.13.4.4,0,0,0-.12.29v14.91a.4.4,0,0,0,.12.29A.389.389,0,0,0,523.2,397.91Z" fill="#fff"/>
    </g>
    <g id="Group_5" data-name="Group 5">
      <g id="Group_3" data-name="Group 3">
        <path id="Path_51" data-name="Path 51" d="M434.12,292.2h0l-6.27-2.95.38-.77-.77-.38-.48.74-4.21-1.97-2.16-1.02-.67-.31-.66-.31-.06-.03-2.25-1.06-.19-.09-.49-.23-.67-.31-.53-.25-.8-.38-4.5-2.11-1.18-.56-.64-.3-5.45-2.56-1.53-.72-2.36-1.1-2.11-.99-.4-.19-2.37.19-.79.06,3.72,1.82,2.97,1.46,2.05,1,4.13,2.02,1.34.66,2.62,1.28,3.55,1.74.03.01.63.31.66.33,2.31,1.13.65.32.65.32h0l4.87,2.38.08.04.93.18,1.26.25.57.57-.64.99,1.14.57.36-.72,6.27,3.09,1.01-2.15Z" fill="#fff"/>
        <g id="Group_2" data-name="Group 2">
          <path id="Path_52" data-name="Path 52" d="M419.16,248.44l2.6-2.4,1.01-2.39.31-.72-.31-.05-.58-.08-1.12-.16-2.59,5.8.09.55Z" fill="#fff"/>
          <path id="Path_53" data-name="Path 53" d="M417.69,282.54l1.16-.55V260.7l-1.7-1.5-.31.01-1.75,1.66v21.12l1.88.88Z" fill="#fff"/>
          <path id="Path_54" data-name="Path 54" d="M407.29,266.63l.31-.29,2.19-2.06,1.76-1.66,1.92-1.81,1.62-1.52v-.05l-1.74.02-2.95.05-.61.01-.74.01-3.9,3.59-1.71,1.59-.43,1.83-1.23,5.31-.06.23.18-.17Z" fill="#fff"/>
          <path id="Path_55" data-name="Path 55" d="M422.72,246.72l-1.02.94-1.02.94-1.89,1.74.1.62.96-.39.75-.32.76-.31,1.41-.59,5.13-2.13,4.79-4.52-4.44-1.09-5.48,5.06Z" fill="#fff"/>
          <path id="Path_56" data-name="Path 56" d="M427.04,248.82l-1.5.62-2.77,1.15-2.05.85-.76.32-.75.31-.43.18.26.22.24.21.3-.01.62-.01,1.95-.02.62-.01H423l.85-.02,5.18-.07.74-.01,2.44-.95,6.16-2.39-3.49-2.11-.19-.11-1.31-.79-4.84,2.01Z" fill="#fff"/>
          <path id="Path_57" data-name="Path 57" d="M415.3,249.26l.13-.83-2.34-5.23-2,.29,1.43,3.39Z" fill="#fff"/>
          <path id="Path_58" data-name="Path 58" d="M436.21,253.59l-5.11.07-1.11.01-1.64.03h-.56l-1.09.02-3.93.06h-.16l-.85.01-.85.01-.31.01.16.13.44.38.44.38.79.68.34.29.16.13.49.43.87.74,1.12.96,3.42-.05,6.04-.09,5.64-.09-2.74-2.62Z" fill="#fff"/>
          <path id="Path_59" data-name="Path 59" d="M408.14,258.19h.46l.86-.02h.33l.52-.01,3.64-.05-2.54-.96-.6-.23-.6-.22-.42-.16-6.59-2.49-3.15.05h-.25l-1.17.02-4.85,4.29,8.69-.13Z" fill="#fff"/>
          <path id="Path_60" data-name="Path 60" d="M403.4,252.9l1.46.55,1.47.56,3.46,1.3,1.36.52.6.22.6.23,2.17.82.39.14-.32-.28-1.53-1.33-.43-.38-.43-.38-1.06-.93-.65-.56-.64-.57-.06-.05-4.1-3.59-7.19-2.99-2.24,1.35-2.73,1.65,4.71,1.78Z" fill="#fff"/>
          <path id="Path_61" data-name="Path 61" d="M416.84,250.58l.04.03.25.22.15.13.03.02h.43l-.06-.32-.01-.07-.04-.25-.07-.42-.1-.61-.17-1.02-.14-.87h-.4l-.14.85-.16,1.04-.13.82.1.1Z" fill="#fff"/>
          <path id="Path_62" data-name="Path 62" d="M407.65,249.36l1.35,1.18.79.69,1.77,1.55.64.56.64.56.19.17.43.38.43.38,1.17,1.02.05.04h.02l.74.66h.03v.02l.27.25.2.18.48.42.09.08.21.18.05.05.17.15.04.04.13.12.26.23.09.08.29.25.64.56h0l1.58,1.39,2.33,2.04,2.4,2.1.5.44.69.6.69.6,2.96,2.59,2.17,1.9.6.52-.19-.71-.14-.52-1.03-3.79-.62-2.29-.97-.83-.4-.34-2.24-1.92-2.19-1.87-.66-.56-.66-.56-.23-.2-.67-.58-.56-.48-.49-.42-.49-.42-.42-.36-.44-.38-.44-.38-.44-.37-.46-.39-.16-.14-.29-.25-.36-.31-.23-.2-.36-.31-.02-.02-.05-.04h-.02l-.42-.38-.02-.02h0l-.2-.17-.02-.02-.24-.21-.19-.17h0v-.01l-.2-.17-.23-.19-.06-.05-.34-.29-.51-.44-1.56-1.34-.98-.84-.98-.84-.43-.37-1.35-1.16-4.63-3.97-4.4,1.25,5.54,4.85,1.35,1.18Z" fill="#fff"/>
          <path id="Path_63" data-name="Path 63" d="M413.33,285.85l-.85.4-2.69,1.26-2.83,1.33-.48-.75-.77.39.38.77-6.27,2.95,1.01,2.15,6.27-3.09.36.72,1.14-.57-.64-1,.57-.57,1.26-.24.93-.18.08-.04,4.87-2.38Z" fill="#fff"/>
          <path id="Path_64" data-name="Path 64" d="M420.6,284.58l2.17-1.06,3.73-1.83,4.49-2.2,9.99-4.89-.8-.06-2.37-.19-.4.19-7.3,3.43-5.72,2.69-1.62.76-3.92,1.84-.53.25.53.25Z" fill="#fff"/>
        </g>
      </g>
      <g id="Group_4" data-name="Group 4">
        <path id="Path_65" data-name="Path 65" d="M379.58,264.53H367.24c-.08,1.16-.12,2.34-.12,3.52a49.829,49.829,0,0,0,.68,8.22h12.54a37.789,37.789,0,0,1-.92-8.22c0-1.18.06-2.36.17-3.51Z" fill="#fff"/>
        <path id="Path_66" data-name="Path 66" d="M469.04,268.04a53.3,53.3,0,0,1-.64,8.22h16.52a70.413,70.413,0,0,0,.58-8.98c0-.92-.02-1.84-.06-2.75H468.93c.08,1.17.12,2.34.12,3.52Z" fill="#fff"/>
        <path id="Path_67" data-name="Path 67" d="M347.11,264.53c-.04.91-.06,1.83-.06,2.75a70.3,70.3,0,0,0,.58,8.98h17.61a53.3,53.3,0,0,1-.64-8.22c0-1.18.04-2.35.12-3.52H347.11Z" fill="#fff"/>
        <path id="Path_68" data-name="Path 68" d="M453.74,276.26h12.1a49.825,49.825,0,0,0,.68-8.22c0-1.18-.04-2.35-.12-3.52H454.49c.11,1.16.17,2.33.17,3.51a37.115,37.115,0,0,1-.92,8.22Z" fill="#fff"/>
        <path id="Path_69" data-name="Path 69" d="M511.62,276.26V264.52H492.37c.03.92.05,1.83.05,2.75a76.493,76.493,0,0,1-.53,8.98h19.72Z" fill="#fff"/>
        <path id="Path_70" data-name="Path 70" d="M340.12,267.28c0-.92.02-1.84.05-2.75H320.03v11.74h20.61a76.493,76.493,0,0,1-.53-8.98Z" fill="#fff"/>
        <path id="Path_71" data-name="Path 71" d="M366.39,254.41a51.4,51.4,0,0,1,7.04-15.44l-16.15-7.93a68.162,68.162,0,0,0-7.05,15.44l16.16,7.94Z" fill="#fff"/>
        <path id="Path_72" data-name="Path 72" d="M375.71,240.09a48.959,48.959,0,0,0-7.01,15.45l11.36,5.58a37.371,37.371,0,0,1,6.81-15.55l-11.16-5.48Z" fill="#fff"/>
        <path id="Path_73" data-name="Path 73" d="M466.37,284.62a51.653,51.653,0,0,1-7.95,15l14.68,7.21a68.425,68.425,0,0,0,7.93-15l-14.66-7.2Z" fill="#fff"/>
        <path id="Path_74" data-name="Path 74" d="M486.43,296.92a75.717,75.717,0,0,1-7.05,12.99l33.27,16.35,7.48-15.23-32.88-16.15C486.98,295.56,486.71,296.24,486.43,296.92Z" fill="#fff"/>
        <path id="Path_75" data-name="Path 75" d="M346.11,237.64a75.766,75.766,0,0,1,4.93-9.67l-20.82-10.23-7.48,15.23,21.21,10.42q.96-2.91,2.16-5.75Z" fill="#fff"/>
        <path id="Path_76" data-name="Path 76" d="M456.12,298.49a49.107,49.107,0,0,0,7.97-14.99l-10.82-5.32a37.573,37.573,0,0,1-8.17,14.89l11.02,5.42Z" fill="#fff"/>
        <path id="Path_77" data-name="Path 77" d="M436.91,316.25l7.82,12.73,12.67-7.78-7.72-12.58a51.529,51.529,0,0,1-12.77,7.63Z" fill="#fff"/>
        <path id="Path_78" data-name="Path 78" d="M435.57,314.07a49.286,49.286,0,0,0,12.78-7.62l-6.33-10.31a37.742,37.742,0,0,1-12.85,7.5Z" fill="#fff"/>
        <path id="Path_79" data-name="Path 79" d="M395.46,220.34l-8.62-14.04-12.67,7.78,8.74,14.23a51.964,51.964,0,0,1,12.55-7.97Z" fill="#fff"/>
        <path id="Path_80" data-name="Path 80" d="M396.79,222.5a49.078,49.078,0,0,0-12.55,7.98l6.54,10.65a37.619,37.619,0,0,1,12.48-8.09l-6.47-10.53Z" fill="#fff"/>
        <path id="Path_81" data-name="Path 81" d="M408.43,343.03v18.64h14.8V343.12q-3.45.315-6.96.32a75.52,75.52,0,0,1-7.84-.4Z" fill="#fff"/>
        <path id="Path_82" data-name="Path 82" d="M423.23,230.93V218.75a50.492,50.492,0,0,0-14.8.29v12.38a37.639,37.639,0,0,1,8.61-1.01,37.109,37.109,0,0,1,6.19.52Z" fill="#fff"/>
        <path id="Path_83" data-name="Path 83" d="M408.43,319.59v16.46a70.356,70.356,0,0,0,7.84.44c2.34,0,4.66-.12,6.96-.34V319.87a52.4,52.4,0,0,1-6.41.39,53.055,53.055,0,0,1-8.39-.67Z" fill="#fff"/>
        <path id="Path_84" data-name="Path 84" d="M408.43,304.66v12.39a50.492,50.492,0,0,0,14.8.29V305.15a37.162,37.162,0,0,1-14.8-.49Z" fill="#fff"/>
        <path id="Path_85" data-name="Path 85" d="M423.23,216.21V198.4q-3.45-.345-6.96-.34a70.221,70.221,0,0,0-7.84.44v17.99a53.055,53.055,0,0,1,8.39-.67,52.407,52.407,0,0,1,6.41.39Z" fill="#fff"/>
        <path id="Path_86" data-name="Path 86" d="M423.23,191.45V173.02h-14.8v18.51c2.59-.26,5.21-.4,7.84-.4C418.61,191.13,420.92,191.24,423.23,191.45Z" fill="#fff"/>
        <path id="Path_87" data-name="Path 87" d="M446.74,228.44a49.066,49.066,0,0,0-13.01-7.07l-6.25,10.53a37.52,37.52,0,0,1,13.14,6.85Z" fill="#fff"/>
        <path id="Path_88" data-name="Path 88" d="M390.32,294.5l-6.45,10.86a49.363,49.363,0,0,0,12.43,8.06l6.32-10.64a37.742,37.742,0,0,1-12.29-8.28Z" fill="#fff"/>
        <path id="Path_89" data-name="Path 89" d="M373.93,322.11a68.224,68.224,0,0,0,12.6,7.76L395,315.6a51.716,51.716,0,0,1-12.44-8.04l-8.63,14.54Z" fill="#fff"/>
        <path id="Path_90" data-name="Path 90" d="M460.47,205.31l9.12-15.37-12.73-7.55-9.22,15.54c.42.19.85.38,1.27.58a75.855,75.855,0,0,1,11.56,6.8Z" fill="#fff"/>
        <path id="Path_91" data-name="Path 91" d="M360.58,344.61l12.73,7.55L383,335.83a75.893,75.893,0,0,1-12.62-7.73l-9.8,16.51Z" fill="#fff"/>
        <path id="Path_92" data-name="Path 92" d="M456.93,211.28a68.223,68.223,0,0,0-12.83-7.37l-9.06,15.26a51.549,51.549,0,0,1,13,7.1l8.89-14.98Z" fill="#fff"/>
        <path id="Path_93" data-name="Path 93" d="M448.84,247.95l9.17-7.71a51.537,51.537,0,0,0-3.62-4.52c-.7-.78-1.43-1.53-2.17-2.26l-9.01,7.58A37.808,37.808,0,0,1,448.84,247.95Z" fill="#fff"/>
        <path id="Path_94" data-name="Path 94" d="M454.16,231.83c.72.71,1.42,1.44,2.1,2.2a53.061,53.061,0,0,1,3.68,4.58l11.46-9.64-5.74-6.82-11.52,9.68Z" fill="#fff"/>
        <path id="Path_95" data-name="Path 95" d="M467.35,254.27l15.47-6.78a84.69,84.69,0,0,0-3.87-9.81l-15.41,6.75A65.865,65.865,0,0,1,467.35,254.27Z" fill="#fff"/>
        <path id="Path_96" data-name="Path 96" d="M370.25,285.21a77.45,77.45,0,0,0,4.8,9.47l11.21-4.91a37.669,37.669,0,0,1-4.84-9.45l-11.17,4.89Z" fill="#fff"/>
        <path id="Path_97" data-name="Path 97" d="M465,255.29a61.988,61.988,0,0,0-3.77-9.85l-11.1,4.86a37.442,37.442,0,0,1,3.66,9.9l11.22-4.92Z" fill="#fff"/>
        <path id="Path_98" data-name="Path 98" d="M321.58,306.54l4.1,9.77,24.85-10.89c-1.54-2.93-2.93-5.6-4.65-9.53l-24.3,10.65Z" fill="#fff"/>
        <path id="Path_99" data-name="Path 99" d="M489.16,244.74l30.59-13.32-4.48-9.66L485.28,234.9a8.85,8.85,0,0,1,.65,1.36c.93,2.18,1.93,4.82,3.23,8.48Z" fill="#fff"/>
        <path id="Path_100" data-name="Path 100" d="M367.94,286.23l-15.74,6.9c1.72,3.91,3.13,6.58,4.72,9.5l15.79-6.92a83.217,83.217,0,0,1-4.77-9.48Z" fill="#fff"/>
      </g>
    </g>
  </g>
</svg>
