<svg xmlns="http://www.w3.org/2000/svg" xmlns:xlink="http://www.w3.org/1999/xlink" width="253.162" height="19.244" viewBox="0 0 253.162 19.244">
  <defs>
    <clipPath id="clip-path">
      <rect id="Rectangle_1475" data-name="Rectangle 1475" width="253.162" height="19.244" fill="#0f2b3f"/>
    </clipPath>
  </defs>
  <g id="_93" data-name="93" transform="translate(0 0)">
    <g id="Group_2853" data-name="Group 2853" transform="translate(0 0)" clip-path="url(#clip-path)">
      <path id="Path_3044" data-name="Path 3044" d="M246.393,12.444l-.429-3.115a4.269,4.269,0,0,0-4.219-3.7h-4.5l.05,9.123h-5.567q-2.624,0-2.621-3.441,0-3.394,2.535-3.394h1.547V5.561h-1.718A4.5,4.5,0,0,0,227.49,7.55a6.717,6.717,0,0,0-1.139,3.893,6.581,6.581,0,0,0,1.333,4.358,4.9,4.9,0,0,0,3.977,1.589h8.36l-.047-9.446H241.6a1.348,1.348,0,0,1,1.333,1.178l.464,3.585a5.353,5.353,0,0,0,5.3,4.682h4.566V14.754h-4.234a2.665,2.665,0,0,1-2.633-2.31" transform="translate(-104.947 -2.578)" fill="#0f2b3f"/>
      <path id="Path_3045" data-name="Path 3045" d="M242.748,29.674a1.57,1.57,0,0,0-1.14.464,1.531,1.531,0,0,0-.473,1.136,1.622,1.622,0,0,0,1.612,1.622,1.517,1.517,0,0,0,1.117-.477,1.56,1.56,0,0,0,.473-1.145,1.6,1.6,0,0,0-1.59-1.6" transform="translate(-111.802 -13.758)" fill="#0f2b3f"/>
      <path id="Path_3046" data-name="Path 3046" d="M236,29.674a1.6,1.6,0,0,0-1.59,1.6,1.56,1.56,0,0,0,.473,1.145A1.515,1.515,0,0,0,236,32.9a1.544,1.544,0,0,0,1.14-.477,1.568,1.568,0,0,0,.473-1.145,1.539,1.539,0,0,0-.473-1.136,1.569,1.569,0,0,0-1.14-.464" transform="translate(-108.682 -13.758)" fill="#0f2b3f"/>
      <path id="Path_3047" data-name="Path 3047" d="M276.309,16.047V8.59L279,8.351v7.7h2.3v2.637h-5.48V16.047Z" transform="translate(-127.88 -3.872)" fill="#0f2b3f"/>
      <path id="Path_3048" data-name="Path 3048" d="M277.508,3.764a1.554,1.554,0,0,1-1.14-.475,1.542,1.542,0,0,1-.473-1.125,1.57,1.57,0,0,1,.473-1.147,1.551,1.551,0,0,1,1.14-.475,1.52,1.52,0,0,1,1.13.475,1.6,1.6,0,0,1,.46,1.147,1.573,1.573,0,0,1-.46,1.125,1.523,1.523,0,0,1-1.13.475" transform="translate(-127.918 -0.251)" fill="#0f2b3f"/>
      <rect id="Rectangle_1473" data-name="Rectangle 1473" width="16.391" height="2.637" transform="translate(67.211 12.125)" fill="#0f2b3f"/>
      <path id="Path_3049" data-name="Path 3049" d="M350.909.273l.023,10.412c0,.944-.363,1.449-1.1,1.515h-4.359v2.636h5.007a2.98,2.98,0,0,0,2.625-1.923,6.345,6.345,0,0,0,.539-2.58V.042Z" transform="translate(-160.177 -0.02)" fill="#0f2b3f"/>
      <path id="Path_3050" data-name="Path 3050" d="M366.317.272V14.834h2.723V.042Z" transform="translate(-169.842 -0.019)" fill="#0f2b3f"/>
      <rect id="Rectangle_1474" data-name="Rectangle 1474" width="8.795" height="2.636" transform="translate(227.928 12.178)" fill="#0f2b3f"/>
      <path id="Path_3051" data-name="Path 3051" d="M433.237,20.252a1.575,1.575,0,0,0-2.25,0,1.5,1.5,0,0,0-.484,1.13,1.545,1.545,0,0,0,.484,1.143,1.551,1.551,0,0,0,2.25,0,1.546,1.546,0,0,0,.473-1.143,1.5,1.5,0,0,0-.473-1.13m-3.612,0a1.522,1.522,0,0,0-1.144-.473,1.478,1.478,0,0,0-1.109.473,1.5,1.5,0,0,0-.473,1.13,1.544,1.544,0,0,0,.473,1.143,1.5,1.5,0,0,0,1.109.483,1.628,1.628,0,0,0,1.614-1.626,1.5,1.5,0,0,0-.47-1.13m6.7-4.207V8.336l-2.7.24v7.468h-3.01V18.68h8.2V16.044Z" transform="translate(-197.931 -3.865)" fill="#0f2b3f"/>
      <path id="Path_3052" data-name="Path 3052" d="M451.066.082l-2.735.242.077,10.377c0,.945-.363,1.449-1.1,1.517h-7.984v2.636h8.633a2.978,2.978,0,0,0,2.625-1.922,6.376,6.376,0,0,0,.538-2.581Z" transform="translate(-203.692 -0.038)" fill="#0f2b3f"/>
      <path id="Path_3053" data-name="Path 3053" d="M469.539.082,466.8.324l.055,14.53h2.735Z" transform="translate(-216.432 -0.038)" fill="#0f2b3f"/>
      <path id="Path_3054" data-name="Path 3054" d="M9.356,4.692A4.711,4.711,0,0,0,7.5,2.6a5.174,5.174,0,0,0-2.723-.733,4.756,4.756,0,0,0-3.4,1.307A4.547,4.547,0,0,0,0,6.6a4.431,4.431,0,0,0,4.535,4.622,4.407,4.407,0,0,0,2.02-.46,5.963,5.963,0,0,1,.988-.462v.023c0,.044-.087.372-.253.978a5.271,5.271,0,0,1-.58,1.4,2.4,2.4,0,0,1-.869.79,2.426,2.426,0,0,1-1.208.3,1.966,1.966,0,0,1-1.283-.386,2.774,2.774,0,0,1-.759-1.481H.2a4.576,4.576,0,0,0,1.459,3,4.449,4.449,0,0,0,2.933.933A5.08,5.08,0,0,0,7.5,15.027a5.049,5.049,0,0,0,1.868-2.406,11.468,11.468,0,0,0,.615-4.095,9.356,9.356,0,0,0-.625-3.834M6.665,8.426a2.283,2.283,0,0,1-1.712.67,2.42,2.42,0,0,1-1.747-.68A2.334,2.334,0,0,1,2.494,6.66a2.68,2.68,0,0,1,.756-1.978A2.41,2.41,0,0,1,5,3.934a2.215,2.215,0,0,1,1.647.693,2.586,2.586,0,0,1,.693,1.922,2.537,2.537,0,0,1-.67,1.878" transform="translate(0 -0.868)" fill="#0f2b3f"/>
      <path id="Path_3055" data-name="Path 3055" d="M31.377,9.1c-.527-.625-.856-.956-.988-.978a4.665,4.665,0,0,1,.505-.769,2.95,2.95,0,0,0,.56-1.745,3.488,3.488,0,0,0-.571-1.879,3.833,3.833,0,0,0-1.636-1.371,5.487,5.487,0,0,0-2.3-.483,4.811,4.811,0,0,0-3.011.944,5,5,0,0,0-1.648,3.075H24.8c.351-1.307,1.086-1.967,2.218-1.967a2.068,2.068,0,0,1,1.407.463,1.546,1.546,0,0,1,.538,1.184,1.488,1.488,0,0,1-.769,1.352,3.387,3.387,0,0,1-1.747.451l-.638-.055v2.2a9.355,9.355,0,0,1,1.375-.21,2.472,2.472,0,0,1,1.723.616,1.989,1.989,0,0,1,.682,1.536,2.135,2.135,0,0,1-.736,1.66,2.575,2.575,0,0,1-1.8.68,2.317,2.317,0,0,1-1.526-.528,3.326,3.326,0,0,1-.888-1.779H22.152A4.664,4.664,0,0,0,23.7,14.752a5.048,5.048,0,0,0,3.327,1.109,5.347,5.347,0,0,0,3.658-1.286,4.049,4.049,0,0,0,1.472-3.161,3.519,3.519,0,0,0-.78-2.318" transform="translate(-10.271 -0.867)" fill="#0f2b3f"/>
      <path id="Path_3056" data-name="Path 3056" d="M57.663,18.872a1.6,1.6,0,0,0-2.253,0A1.518,1.518,0,0,0,54.939,20a1.57,1.57,0,0,0,.471,1.152,1.579,1.579,0,0,0,2.253,0A1.571,1.571,0,0,0,58.136,20a1.519,1.519,0,0,0-.473-1.132m-3.614,0a1.6,1.6,0,0,0-2.251,0A1.51,1.51,0,0,0,51.325,20a1.562,1.562,0,0,0,.474,1.152,1.576,1.576,0,0,0,2.251,0A1.571,1.571,0,0,0,54.522,20a1.519,1.519,0,0,0-.473-1.132m13.332-5.766A10.333,10.333,0,0,1,66.59,10.2c-.4-3.063-2.087-4.633-5.018-4.72H57.948v9.19H52.379c-1.745,0-2.623-1.153-2.623-3.437,0-2.262.856-3.393,2.557-3.393h1.528V5.475H52.117a4.443,4.443,0,0,0-3.955,1.988,6.651,6.651,0,0,0-1.152,3.886,6.537,6.537,0,0,0,1.33,4.36A4.866,4.866,0,0,0,52.313,17.3h8.357V7.79h.6a2.442,2.442,0,0,1,2.67,2.274,13.737,13.737,0,0,0,.548,2.328l.395,1.132h2.681Z" transform="translate(-21.796 -2.539)" fill="#0f2b3f"/>
      <path id="Path_3057" data-name="Path 3057" d="M91.824,5.1l-.691,2.515a5.737,5.737,0,0,1,4.513,4.843A12.974,12.974,0,0,1,95.8,14.5H89.353V17.13h9.159V14.12Q98.233,6.708,91.824,5.1" transform="translate(-41.428 -2.367)" fill="#0f2b3f"/>
      <path id="Path_3058" data-name="Path 3058" d="M180.479.329l.023,10.324c0,.954-.363,1.459-1.1,1.514H157.768V14.8h22.283a2.961,2.961,0,0,0,2.625-1.922,6.278,6.278,0,0,0,.538-2.58V.087Z" transform="translate(-73.149 -0.04)" fill="#0f2b3f"/>
      <path id="Path_3059" data-name="Path 3059" d="M210.8.329V14.8h2.735V.087Z" transform="translate(-97.737 -0.041)" fill="#0f2b3f"/>
      <path id="Path_3060" data-name="Path 3060" d="M168.576,8.666l-2.729.24v7.236h-2.666V8.666l-2.727.24v7.236h-8.846v2.64H169.97v-2.64h-1.395Z" transform="translate(-70.292 -4.018)" fill="#0f2b3f"/>
      <path id="Path_3061" data-name="Path 3061" d="M188.253,8.906v7.238h2.729V8.666Z" transform="translate(-87.283 -4.018)" fill="#0f2b3f"/>
      <path id="Path_3062" data-name="Path 3062" d="M334.95,6.37A4.5,4.5,0,0,0,331.731,7.7a4.548,4.548,0,0,0-1.329,3.229v2.3a4.544,4.544,0,0,0,4.526,4.546h1.043c-.792,1.154-2.2,1.715-4.283,1.715v2.678c4.085,0,5.952-1.855,6.8-3.4a7.123,7.123,0,0,0,.438-.989,9.392,9.392,0,0,0,.5-2.636c.033-.493.033-.924.033-1.264V10.927a4.548,4.548,0,0,0-4.5-4.557m1.844,7.544c0,.33,0,.735-.032,1.186h-1.834a1.883,1.883,0,0,1-1.868-1.878v-2.3A1.861,1.861,0,0,1,333.61,9.6a1.814,1.814,0,0,1,1.317-.55h.01a1.872,1.872,0,0,1,1.857,1.879Z" transform="translate(-153.19 -2.953)" fill="#0f2b3f"/>
      <path id="Path_3063" data-name="Path 3063" d="M146.95,10.016a4.432,4.432,0,0,0-7.557.01l-1.976,3.91,2.252,1.857,2.636,2.162.965-1.186.846,1.067.911-.736,1.627-1.306,2.283-1.845Zm-5.184,1.219a1.612,1.612,0,0,1,1.407-.648h.02a1.582,1.582,0,0,1,1.384.648l1.011,1.987-2.438,1.967-2.384-1.967Z" transform="translate(-63.713 -3.665)" fill="#0f2b3f"/>
      <path id="Path_3064" data-name="Path 3064" d="M413.931,6.37A4.471,4.471,0,0,0,410.725,7.7a4.548,4.548,0,0,0-1.329,3.229v2.3a4.538,4.538,0,0,0,4.525,4.546h1.034c-.78,1.154-2.187,1.715-4.284,1.715v2.678c4.1,0,5.964-1.855,6.81-3.4a7.12,7.12,0,0,0,.438-.989,9.392,9.392,0,0,0,.5-2.636c.033-.493.033-.924.033-1.264V10.927a4.551,4.551,0,0,0-4.515-4.557m1.857,7.544c0,.33,0,.735-.032,1.186h-1.835a1.876,1.876,0,0,1-1.868-1.878v-2.3A1.861,1.861,0,0,1,412.6,9.6a1.793,1.793,0,0,1,1.317-.55,1.874,1.874,0,0,1,1.867,1.879Z" transform="translate(-189.815 -2.953)" fill="#0f2b3f"/>
      <path id="Path_3065" data-name="Path 3065" d="M115.81,6.416A4.575,4.575,0,0,0,112.6,7.743a4.528,4.528,0,0,0-1.341,3.228v2.3a4.549,4.549,0,0,0,4.535,4.556h1.033c-.78,1.153-2.184,1.714-4.282,1.714v2.681c4.1,0,5.962-1.857,6.808-3.416a6.806,6.806,0,0,0,.461-1.066A9.71,9.71,0,0,0,120.3,15.1c.023-.45.023-.856.023-1.186V10.971a4.548,4.548,0,0,0-4.512-4.555m1.845,7.544c0,.33,0,.735-.032,1.186H115.8a1.874,1.874,0,0,1-1.865-1.878v-2.3a1.817,1.817,0,0,1,.548-1.326,1.838,1.838,0,0,1,1.317-.55,1.879,1.879,0,0,1,1.857,1.877Z" transform="translate(-51.586 -2.975)" fill="#0f2b3f"/>
      <path id="Path_3066" data-name="Path 3066" d="M306.15,5.437a4.5,4.5,0,0,0-3.975-1.988h-12L290.194,0l-2.756.253V12.18h-2v2.636h16.516a4.86,4.86,0,0,0,3.954-1.6,6.162,6.162,0,0,0,1.318-4.27,7.079,7.079,0,0,0-1.077-3.5m-4.283,6.742H290.139l.033-5.985h11.783c1.517,0,2.35.934,2.5,2.746-.067,2.129-.933,3.239-2.592,3.239" transform="translate(-132.343 0)" fill="#0f2b3f"/>
      <path id="Path_3067" data-name="Path 3067" d="M389.111,7.392c-3.03,0-5.261,2.789-5.261,5.744a6.721,6.721,0,0,0,.023.713,3.618,3.618,0,0,0-2.087,1.175,4.688,4.688,0,0,0-1.2,3.461v3.841h2.7V18.572c0-1.351.44-2.033,1.307-2.065a5.422,5.422,0,0,0,.4.681,4.744,4.744,0,0,0,4.12,2.175,4.628,4.628,0,0,0,4.085-2.2,6.868,6.868,0,0,0,.515-.978c1.559-3.535-.2-8.8-4.6-8.8m-.023,9.576c-1.965,0-2.515-2.23-2.515-3.832,0-1.484.78-3.406,2.515-3.406s2.515,1.934,2.515,3.406c0,1.58-.55,3.832-2.515,3.832" transform="translate(-176.459 -3.427)" fill="#0f2b3f"/>
    </g>
  </g>
</svg>
