<svg xmlns="http://www.w3.org/2000/svg" xmlns:xlink="http://www.w3.org/1999/xlink" width="253.162" height="38.046" viewBox="0 0 253.162 38.046">
  <defs>
    <clipPath id="clip-path">
      <rect id="Rectangle_1464" data-name="Rectangle 1464" width="253.162" height="38.046" transform="translate(0 0)" fill="#fff"/>
    </clipPath>
  </defs>
  <g id="نحلم_ونحقق" data-name="نحلم ونحقق" transform="translate(-89 -447)">
    <g id="Group_2849" data-name="Group 2849" transform="translate(89 447)">
      <g id="Group_2848" data-name="Group 2848" clip-path="url(#clip-path)">
        <path id="Path_3035" data-name="Path 3035" d="M6.884,28.99H87.933a10.323,10.323,0,0,0,7.918-3.744V28.99h13.5a6.892,6.892,0,0,0,6.883-6.885V13.123h.387V8.212h-5.3V22.1a1.976,1.976,0,0,1-1.972,1.974H96.723a10.343,10.343,0,0,0-8.79-15.867H74.9v4.911H87.933a5.478,5.478,0,1,1,0,10.956H63.325V18.065a9.866,9.866,0,0,0-9.861-9.853,10.379,10.379,0,0,0-8.818,15.867h-7.26V18.065a9.866,9.866,0,0,0-9.86-9.853,10.38,10.38,0,0,0-8.82,15.867H6.884A1.976,1.976,0,0,1,4.911,22.1V8.485H0V22.1A6.892,6.892,0,0,0,6.884,28.99M53.472,13.123a4.947,4.947,0,0,1,4.941,4.942v6.014H53.464a5.478,5.478,0,1,1,.008-10.956m-25.939,0a4.948,4.948,0,0,1,4.942,4.942v6.014H27.526a5.478,5.478,0,1,1,.007-10.956" fill="#fff"/>
        <path id="Path_3036" data-name="Path 3036" d="M129.436,11.257a10.39,10.39,0,0,0,7.355,17.733,9.8,9.8,0,0,0,3.439-.632,10.05,10.05,0,0,1-7.089,4.665l-1.107.167.733,4.856,1.107-.167a14.925,14.925,0,0,0,12.77-14.845V19.741h-.03c.012-.2.03-.4.03-.6V8.211h-9.86a10.315,10.315,0,0,0-7.348,3.046m12.3,7.879a4.949,4.949,0,0,1-4.949,4.942,5.477,5.477,0,1,1,0-10.955h4.949Z" fill="#fff"/>
        <rect id="Rectangle_1458" data-name="Rectangle 1458" width="4.668" height="4.668" transform="translate(20.99 3.301) rotate(-45)" fill="#fff"/>
        <rect id="Rectangle_1459" data-name="Rectangle 1459" width="4.668" height="4.668" transform="translate(27.794 3.301) rotate(-45)" fill="#fff"/>
        <rect id="Rectangle_1460" data-name="Rectangle 1460" width="4.668" height="4.668" transform="translate(46.497 3.301) rotate(-45)" fill="#fff"/>
        <rect id="Rectangle_1461" data-name="Rectangle 1461" width="4.668" height="4.668" transform="translate(53.302 3.301) rotate(-45)" fill="#fff"/>
        <path id="Path_3037" data-name="Path 3037" d="M247.864,22.106a1.975,1.975,0,0,1-1.972,1.973H233.264a10.29,10.29,0,0,0,1.6-5.478A10.4,10.4,0,0,0,224.475,8.212H211.437v4.911h13.038a5.478,5.478,0,0,1,0,10.956H196.636a6.527,6.527,0,0,0,.212-1.622V2.308h-4.911V22.457a1.624,1.624,0,0,1-1.622,1.622H179.44V18.065a9.865,9.865,0,0,0-9.859-9.853,10.4,10.4,0,0,0-10.389,10.383,10.54,10.54,0,0,0,.053,1.054V21.86a4.067,4.067,0,0,1-4.062,4.063v4.911a8.968,8.968,0,0,0,7.664-4.331,10.3,10.3,0,0,0,6.734,2.487h20.734a6.535,6.535,0,0,0,5.718-3.381V28.99h28.442a10.322,10.322,0,0,0,7.753-3.545V28.99h13.664a6.892,6.892,0,0,0,6.884-6.884V13.123h.386V8.212h-5.3Zm-73.335,1.973h-4.948a5.467,5.467,0,0,1-5.425-4.756V18.6H164.1a5.486,5.486,0,0,1,5.485-5.474,4.947,4.947,0,0,1,4.941,4.942Z" fill="#fff"/>
        <rect id="Rectangle_1462" data-name="Rectangle 1462" width="4.668" height="4.668" transform="matrix(0.707, -0.707, 0.707, 0.707, 246.56, 3.301)" fill="#fff"/>
        <rect id="Rectangle_1463" data-name="Rectangle 1463" width="4.668" height="4.668" transform="translate(110.019 3.301) rotate(-45)" fill="#fff"/>
      </g>
    </g>
  </g>
</svg>
